<mxfile host="app.diagrams.net" agent="Mozilla/5.0 (X11; Linux x86_64; rv:131.0) Gecko/20100101 Firefox/131.0" version="24.8.8">
  <diagram name="Page-1" id="mCpy6Uag7k8ED9JH17qP">
    <mxGraphModel dx="2206" dy="1152" grid="1" gridSize="10" guides="1" tooltips="1" connect="1" arrows="1" fold="1" page="1" pageScale="1" pageWidth="850" pageHeight="1100" math="0" shadow="0">
      <root>
        <mxCell id="0" />
        <mxCell id="1" parent="0" />
        <mxCell id="4V5qH3O3NvcLZ8hvsB69-1" value="" style="rounded=0;whiteSpace=wrap;html=1;fillColor=#008a00;strokeColor=#005700;fontColor=#ffffff;" vertex="1" parent="1">
          <mxGeometry x="240" y="300" width="40" height="20" as="geometry" />
        </mxCell>
        <mxCell id="4V5qH3O3NvcLZ8hvsB69-2" value="" style="rounded=0;whiteSpace=wrap;html=1;fillColor=#008a00;fontColor=#ffffff;strokeColor=#005700;" vertex="1" parent="1">
          <mxGeometry x="280" y="300" width="40" height="20" as="geometry" />
        </mxCell>
        <mxCell id="4V5qH3O3NvcLZ8hvsB69-3" value="" style="rounded=0;whiteSpace=wrap;html=1;fillColor=#008a00;fontColor=#ffffff;strokeColor=#005700;" vertex="1" parent="1">
          <mxGeometry x="320" y="300" width="40" height="20" as="geometry" />
        </mxCell>
        <mxCell id="4V5qH3O3NvcLZ8hvsB69-4" value="" style="rounded=0;whiteSpace=wrap;html=1;fillColor=#008a00;fontColor=#ffffff;strokeColor=#005700;" vertex="1" parent="1">
          <mxGeometry x="360" y="300" width="40" height="20" as="geometry" />
        </mxCell>
        <mxCell id="4V5qH3O3NvcLZ8hvsB69-10" value="" style="rounded=0;whiteSpace=wrap;html=1;fillColor=#008a00;strokeColor=#005700;fontColor=#ffffff;" vertex="1" parent="1">
          <mxGeometry x="400" y="300" width="40" height="20" as="geometry" />
        </mxCell>
        <mxCell id="4V5qH3O3NvcLZ8hvsB69-11" value="" style="rounded=0;whiteSpace=wrap;html=1;fillColor=#008a00;fontColor=#ffffff;strokeColor=#005700;" vertex="1" parent="1">
          <mxGeometry x="440" y="300" width="40" height="20" as="geometry" />
        </mxCell>
        <mxCell id="4V5qH3O3NvcLZ8hvsB69-12" value="" style="rounded=0;whiteSpace=wrap;html=1;fillColor=#008a00;fontColor=#ffffff;strokeColor=#005700;" vertex="1" parent="1">
          <mxGeometry x="480" y="300" width="40" height="20" as="geometry" />
        </mxCell>
        <mxCell id="4V5qH3O3NvcLZ8hvsB69-13" value="" style="rounded=0;whiteSpace=wrap;html=1;fillColor=#008a00;fontColor=#ffffff;strokeColor=#005700;" vertex="1" parent="1">
          <mxGeometry x="520" y="300" width="40" height="20" as="geometry" />
        </mxCell>
        <mxCell id="4V5qH3O3NvcLZ8hvsB69-14" value="" style="rounded=0;whiteSpace=wrap;html=1;fillColor=#008a00;fontColor=#ffffff;strokeColor=#005700;rotation=-90;" vertex="1" parent="1">
          <mxGeometry x="210" y="330" width="40" height="20" as="geometry" />
        </mxCell>
        <mxCell id="4V5qH3O3NvcLZ8hvsB69-15" value="" style="rounded=0;whiteSpace=wrap;html=1;fillColor=#008a00;fontColor=#ffffff;strokeColor=#005700;rotation=-90;" vertex="1" parent="1">
          <mxGeometry x="210" y="370" width="40" height="20" as="geometry" />
        </mxCell>
        <mxCell id="4V5qH3O3NvcLZ8hvsB69-16" value="" style="rounded=0;whiteSpace=wrap;html=1;fillColor=#008a00;fontColor=#ffffff;strokeColor=#005700;rotation=-90;" vertex="1" parent="1">
          <mxGeometry x="210" y="410" width="40" height="20" as="geometry" />
        </mxCell>
        <mxCell id="4V5qH3O3NvcLZ8hvsB69-17" value="" style="rounded=0;whiteSpace=wrap;html=1;fillColor=#008a00;fontColor=#ffffff;strokeColor=#005700;rotation=-90;" vertex="1" parent="1">
          <mxGeometry x="210" y="450" width="40" height="20" as="geometry" />
        </mxCell>
        <mxCell id="4V5qH3O3NvcLZ8hvsB69-18" value="" style="rounded=0;whiteSpace=wrap;html=1;fillColor=#008a00;fontColor=#ffffff;strokeColor=#005700;rotation=-90;" vertex="1" parent="1">
          <mxGeometry x="210" y="490" width="40" height="20" as="geometry" />
        </mxCell>
        <mxCell id="4V5qH3O3NvcLZ8hvsB69-19" value="" style="rounded=0;whiteSpace=wrap;html=1;fillColor=#008a00;fontColor=#ffffff;strokeColor=#005700;rotation=-90;" vertex="1" parent="1">
          <mxGeometry x="210" y="530" width="40" height="20" as="geometry" />
        </mxCell>
        <mxCell id="4V5qH3O3NvcLZ8hvsB69-20" value="" style="rounded=0;whiteSpace=wrap;html=1;fillColor=#008a00;fontColor=#ffffff;strokeColor=#005700;rotation=-90;" vertex="1" parent="1">
          <mxGeometry x="210" y="570" width="40" height="20" as="geometry" />
        </mxCell>
        <mxCell id="4V5qH3O3NvcLZ8hvsB69-21" value="" style="rounded=0;whiteSpace=wrap;html=1;fillColor=#008a00;fontColor=#ffffff;strokeColor=#005700;rotation=-90;" vertex="1" parent="1">
          <mxGeometry x="210" y="610" width="40" height="20" as="geometry" />
        </mxCell>
        <mxCell id="4V5qH3O3NvcLZ8hvsB69-26" value="" style="rounded=0;whiteSpace=wrap;html=1;fillColor=#008a00;fontColor=#ffffff;strokeColor=#005700;" vertex="1" parent="1">
          <mxGeometry x="560" y="300" width="40" height="20" as="geometry" />
        </mxCell>
        <mxCell id="4V5qH3O3NvcLZ8hvsB69-27" value="" style="rounded=0;whiteSpace=wrap;html=1;fillColor=#008a00;fontColor=#ffffff;strokeColor=#005700;" vertex="1" parent="1">
          <mxGeometry x="600" y="300" width="40" height="20" as="geometry" />
        </mxCell>
        <mxCell id="4V5qH3O3NvcLZ8hvsB69-29" value="" style="rounded=0;whiteSpace=wrap;html=1;fillColor=#008a00;strokeColor=#005700;fontColor=#ffffff;" vertex="1" parent="1">
          <mxGeometry x="640" y="300" width="40" height="20" as="geometry" />
        </mxCell>
        <mxCell id="4V5qH3O3NvcLZ8hvsB69-30" value="" style="rounded=0;whiteSpace=wrap;html=1;fillColor=#008a00;fontColor=#ffffff;strokeColor=#005700;" vertex="1" parent="1">
          <mxGeometry x="680" y="300" width="40" height="20" as="geometry" />
        </mxCell>
        <mxCell id="4V5qH3O3NvcLZ8hvsB69-31" value="" style="rounded=0;whiteSpace=wrap;html=1;fillColor=#008a00;fontColor=#ffffff;strokeColor=#005700;" vertex="1" parent="1">
          <mxGeometry x="720" y="300" width="40" height="20" as="geometry" />
        </mxCell>
        <mxCell id="4V5qH3O3NvcLZ8hvsB69-32" value="" style="rounded=0;whiteSpace=wrap;html=1;fillColor=#008a00;fontColor=#ffffff;strokeColor=#005700;" vertex="1" parent="1">
          <mxGeometry x="760" y="300" width="40" height="20" as="geometry" />
        </mxCell>
        <mxCell id="4V5qH3O3NvcLZ8hvsB69-33" value="" style="rounded=0;whiteSpace=wrap;html=1;fillColor=#008a00;strokeColor=#005700;fontColor=#ffffff;" vertex="1" parent="1">
          <mxGeometry x="800" y="300" width="40" height="20" as="geometry" />
        </mxCell>
        <mxCell id="4V5qH3O3NvcLZ8hvsB69-34" value="" style="rounded=0;whiteSpace=wrap;html=1;fillColor=#008a00;fontColor=#ffffff;strokeColor=#005700;" vertex="1" parent="1">
          <mxGeometry x="840" y="300" width="40" height="20" as="geometry" />
        </mxCell>
        <mxCell id="4V5qH3O3NvcLZ8hvsB69-35" value="" style="rounded=0;whiteSpace=wrap;html=1;fillColor=#008a00;fontColor=#ffffff;strokeColor=#005700;" vertex="1" parent="1">
          <mxGeometry x="880" y="300" width="40" height="20" as="geometry" />
        </mxCell>
        <mxCell id="4V5qH3O3NvcLZ8hvsB69-36" value="" style="rounded=0;whiteSpace=wrap;html=1;fillColor=#008a00;fontColor=#ffffff;strokeColor=#005700;" vertex="1" parent="1">
          <mxGeometry x="920" y="300" width="40" height="20" as="geometry" />
        </mxCell>
        <mxCell id="4V5qH3O3NvcLZ8hvsB69-37" value="" style="rounded=0;whiteSpace=wrap;html=1;fillColor=#008a00;fontColor=#ffffff;strokeColor=#005700;" vertex="1" parent="1">
          <mxGeometry x="960" y="300" width="40" height="20" as="geometry" />
        </mxCell>
        <mxCell id="4V5qH3O3NvcLZ8hvsB69-38" value="" style="rounded=0;whiteSpace=wrap;html=1;fillColor=#008a00;fontColor=#ffffff;strokeColor=#005700;" vertex="1" parent="1">
          <mxGeometry x="1000" y="300" width="40" height="20" as="geometry" />
        </mxCell>
        <mxCell id="4V5qH3O3NvcLZ8hvsB69-39" value="" style="rounded=0;whiteSpace=wrap;html=1;fillColor=#008a00;strokeColor=#005700;fontColor=#ffffff;" vertex="1" parent="1">
          <mxGeometry x="1040" y="300" width="40" height="20" as="geometry" />
        </mxCell>
        <mxCell id="4V5qH3O3NvcLZ8hvsB69-40" value="" style="rounded=0;whiteSpace=wrap;html=1;fillColor=#008a00;fontColor=#ffffff;strokeColor=#005700;" vertex="1" parent="1">
          <mxGeometry x="1080" y="300" width="40" height="20" as="geometry" />
        </mxCell>
        <mxCell id="4V5qH3O3NvcLZ8hvsB69-41" value="" style="rounded=0;whiteSpace=wrap;html=1;fillColor=#008a00;fontColor=#ffffff;strokeColor=#005700;" vertex="1" parent="1">
          <mxGeometry x="1120" y="300" width="40" height="20" as="geometry" />
        </mxCell>
        <mxCell id="4V5qH3O3NvcLZ8hvsB69-42" value="" style="rounded=0;whiteSpace=wrap;html=1;fillColor=#008a00;fontColor=#ffffff;strokeColor=#005700;" vertex="1" parent="1">
          <mxGeometry x="1160" y="300" width="40" height="20" as="geometry" />
        </mxCell>
        <mxCell id="4V5qH3O3NvcLZ8hvsB69-43" value="" style="rounded=0;whiteSpace=wrap;html=1;fillColor=#008a00;strokeColor=#005700;fontColor=#ffffff;" vertex="1" parent="1">
          <mxGeometry x="1200" y="300" width="40" height="20" as="geometry" />
        </mxCell>
        <mxCell id="4V5qH3O3NvcLZ8hvsB69-44" value="" style="rounded=0;whiteSpace=wrap;html=1;fillColor=#008a00;fontColor=#ffffff;strokeColor=#005700;" vertex="1" parent="1">
          <mxGeometry x="1240" y="300" width="40" height="20" as="geometry" />
        </mxCell>
        <mxCell id="4V5qH3O3NvcLZ8hvsB69-45" value="" style="rounded=0;whiteSpace=wrap;html=1;fillColor=#008a00;fontColor=#ffffff;strokeColor=#005700;" vertex="1" parent="1">
          <mxGeometry x="1280" y="300" width="40" height="20" as="geometry" />
        </mxCell>
        <mxCell id="4V5qH3O3NvcLZ8hvsB69-46" value="" style="rounded=0;whiteSpace=wrap;html=1;fillColor=#008a00;fontColor=#ffffff;strokeColor=#005700;" vertex="1" parent="1">
          <mxGeometry x="1320" y="300" width="40" height="20" as="geometry" />
        </mxCell>
        <mxCell id="4V5qH3O3NvcLZ8hvsB69-47" value="" style="rounded=0;whiteSpace=wrap;html=1;fillColor=#008a00;fontColor=#ffffff;strokeColor=#005700;" vertex="1" parent="1">
          <mxGeometry x="1360" y="300" width="40" height="20" as="geometry" />
        </mxCell>
        <mxCell id="4V5qH3O3NvcLZ8hvsB69-48" value="" style="rounded=0;whiteSpace=wrap;html=1;fillColor=#008a00;fontColor=#ffffff;strokeColor=#005700;" vertex="1" parent="1">
          <mxGeometry x="1400" y="300" width="40" height="20" as="geometry" />
        </mxCell>
        <mxCell id="4V5qH3O3NvcLZ8hvsB69-49" value="" style="rounded=0;whiteSpace=wrap;html=1;fillColor=#008a00;strokeColor=#005700;fontColor=#ffffff;" vertex="1" parent="1">
          <mxGeometry x="1440" y="300" width="40" height="20" as="geometry" />
        </mxCell>
        <mxCell id="4V5qH3O3NvcLZ8hvsB69-50" value="" style="rounded=0;whiteSpace=wrap;html=1;fillColor=#008a00;fontColor=#ffffff;strokeColor=#005700;" vertex="1" parent="1">
          <mxGeometry x="1480" y="300" width="40" height="20" as="geometry" />
        </mxCell>
        <mxCell id="4V5qH3O3NvcLZ8hvsB69-51" value="" style="rounded=0;whiteSpace=wrap;html=1;fillColor=#008a00;fontColor=#ffffff;strokeColor=#005700;" vertex="1" parent="1">
          <mxGeometry x="1520" y="300" width="40" height="20" as="geometry" />
        </mxCell>
        <mxCell id="4V5qH3O3NvcLZ8hvsB69-52" value="" style="rounded=0;whiteSpace=wrap;html=1;fillColor=#008a00;fontColor=#ffffff;strokeColor=#005700;" vertex="1" parent="1">
          <mxGeometry x="1560" y="300" width="40" height="20" as="geometry" />
        </mxCell>
        <mxCell id="4V5qH3O3NvcLZ8hvsB69-53" value="" style="rounded=0;whiteSpace=wrap;html=1;fillColor=#008a00;strokeColor=#005700;fontColor=#ffffff;" vertex="1" parent="1">
          <mxGeometry x="1600" y="300" width="40" height="20" as="geometry" />
        </mxCell>
        <mxCell id="4V5qH3O3NvcLZ8hvsB69-54" value="" style="rounded=0;whiteSpace=wrap;html=1;fillColor=#008a00;fontColor=#ffffff;strokeColor=#005700;" vertex="1" parent="1">
          <mxGeometry x="1640" y="300" width="40" height="20" as="geometry" />
        </mxCell>
        <mxCell id="4V5qH3O3NvcLZ8hvsB69-55" value="" style="rounded=0;whiteSpace=wrap;html=1;fillColor=#008a00;fontColor=#ffffff;strokeColor=#005700;" vertex="1" parent="1">
          <mxGeometry x="1680" y="300" width="40" height="20" as="geometry" />
        </mxCell>
        <mxCell id="4V5qH3O3NvcLZ8hvsB69-56" value="" style="rounded=0;whiteSpace=wrap;html=1;fillColor=#008a00;fontColor=#ffffff;strokeColor=#005700;" vertex="1" parent="1">
          <mxGeometry x="1720" y="300" width="40" height="20" as="geometry" />
        </mxCell>
        <mxCell id="4V5qH3O3NvcLZ8hvsB69-57" value="" style="rounded=0;whiteSpace=wrap;html=1;fillColor=#008a00;fontColor=#ffffff;strokeColor=#005700;" vertex="1" parent="1">
          <mxGeometry x="1760" y="300" width="40" height="20" as="geometry" />
        </mxCell>
        <mxCell id="4V5qH3O3NvcLZ8hvsB69-58" value="" style="rounded=0;whiteSpace=wrap;html=1;fillColor=#008a00;fontColor=#ffffff;strokeColor=#005700;" vertex="1" parent="1">
          <mxGeometry x="1800" y="300" width="40" height="20" as="geometry" />
        </mxCell>
        <mxCell id="4V5qH3O3NvcLZ8hvsB69-59" value="" style="rounded=0;whiteSpace=wrap;html=1;fillColor=#008a00;fontColor=#ffffff;strokeColor=#005700;rotation=-90;" vertex="1" parent="1">
          <mxGeometry x="210" y="650" width="40" height="20" as="geometry" />
        </mxCell>
        <mxCell id="4V5qH3O3NvcLZ8hvsB69-60" value="" style="rounded=0;whiteSpace=wrap;html=1;fillColor=#008a00;fontColor=#ffffff;strokeColor=#005700;rotation=-90;" vertex="1" parent="1">
          <mxGeometry x="210" y="690" width="40" height="20" as="geometry" />
        </mxCell>
        <mxCell id="4V5qH3O3NvcLZ8hvsB69-61" value="" style="rounded=0;whiteSpace=wrap;html=1;fillColor=#008a00;fontColor=#ffffff;strokeColor=#005700;rotation=-90;" vertex="1" parent="1">
          <mxGeometry x="210" y="730" width="40" height="20" as="geometry" />
        </mxCell>
        <mxCell id="4V5qH3O3NvcLZ8hvsB69-62" value="" style="rounded=0;whiteSpace=wrap;html=1;fillColor=#008a00;fontColor=#ffffff;strokeColor=#005700;rotation=-90;" vertex="1" parent="1">
          <mxGeometry x="210" y="770" width="40" height="20" as="geometry" />
        </mxCell>
        <mxCell id="4V5qH3O3NvcLZ8hvsB69-63" value="" style="rounded=0;whiteSpace=wrap;html=1;fillColor=#008a00;fontColor=#ffffff;strokeColor=#005700;rotation=-90;" vertex="1" parent="1">
          <mxGeometry x="210" y="810" width="40" height="20" as="geometry" />
        </mxCell>
        <mxCell id="4V5qH3O3NvcLZ8hvsB69-64" value="" style="rounded=0;whiteSpace=wrap;html=1;fillColor=#008a00;fontColor=#ffffff;strokeColor=#005700;rotation=-90;" vertex="1" parent="1">
          <mxGeometry x="210" y="850" width="40" height="20" as="geometry" />
        </mxCell>
        <mxCell id="4V5qH3O3NvcLZ8hvsB69-65" value="" style="rounded=0;whiteSpace=wrap;html=1;fillColor=#008a00;fontColor=#ffffff;strokeColor=#005700;rotation=-90;" vertex="1" parent="1">
          <mxGeometry x="210" y="890" width="40" height="20" as="geometry" />
        </mxCell>
        <mxCell id="4V5qH3O3NvcLZ8hvsB69-66" value="" style="rounded=0;whiteSpace=wrap;html=1;fillColor=#008a00;fontColor=#ffffff;strokeColor=#005700;rotation=-90;" vertex="1" parent="1">
          <mxGeometry x="210" y="930" width="40" height="20" as="geometry" />
        </mxCell>
        <mxCell id="4V5qH3O3NvcLZ8hvsB69-67" value="" style="rounded=0;whiteSpace=wrap;html=1;fillColor=#008a00;fontColor=#ffffff;strokeColor=#005700;rotation=-90;" vertex="1" parent="1">
          <mxGeometry x="210" y="970" width="40" height="20" as="geometry" />
        </mxCell>
        <mxCell id="4V5qH3O3NvcLZ8hvsB69-68" value="" style="rounded=0;whiteSpace=wrap;html=1;fillColor=#008a00;fontColor=#ffffff;strokeColor=#005700;rotation=-90;" vertex="1" parent="1">
          <mxGeometry x="210" y="1010" width="40" height="20" as="geometry" />
        </mxCell>
        <mxCell id="4V5qH3O3NvcLZ8hvsB69-69" value="" style="rounded=0;whiteSpace=wrap;html=1;fillColor=#008a00;fontColor=#ffffff;strokeColor=#005700;rotation=-90;" vertex="1" parent="1">
          <mxGeometry x="210" y="1050" width="40" height="20" as="geometry" />
        </mxCell>
        <mxCell id="4V5qH3O3NvcLZ8hvsB69-70" value="" style="rounded=0;whiteSpace=wrap;html=1;fillColor=#008a00;fontColor=#ffffff;strokeColor=#005700;rotation=-90;" vertex="1" parent="1">
          <mxGeometry x="210" y="1090" width="40" height="20" as="geometry" />
        </mxCell>
        <mxCell id="4V5qH3O3NvcLZ8hvsB69-111" value="" style="rounded=0;whiteSpace=wrap;html=1;fillColor=#008a00;strokeColor=#005700;fontColor=#ffffff;" vertex="1" parent="1">
          <mxGeometry x="240" y="1120" width="40" height="20" as="geometry" />
        </mxCell>
        <mxCell id="4V5qH3O3NvcLZ8hvsB69-112" value="" style="rounded=0;whiteSpace=wrap;html=1;fillColor=#008a00;fontColor=#ffffff;strokeColor=#005700;" vertex="1" parent="1">
          <mxGeometry x="280" y="1120" width="40" height="20" as="geometry" />
        </mxCell>
        <mxCell id="4V5qH3O3NvcLZ8hvsB69-113" value="" style="rounded=0;whiteSpace=wrap;html=1;fillColor=#008a00;fontColor=#ffffff;strokeColor=#005700;" vertex="1" parent="1">
          <mxGeometry x="320" y="1120" width="40" height="20" as="geometry" />
        </mxCell>
        <mxCell id="4V5qH3O3NvcLZ8hvsB69-114" value="" style="rounded=0;whiteSpace=wrap;html=1;fillColor=#008a00;fontColor=#ffffff;strokeColor=#005700;" vertex="1" parent="1">
          <mxGeometry x="360" y="1120" width="40" height="20" as="geometry" />
        </mxCell>
        <mxCell id="4V5qH3O3NvcLZ8hvsB69-115" value="" style="rounded=0;whiteSpace=wrap;html=1;fillColor=#008a00;strokeColor=#005700;fontColor=#ffffff;" vertex="1" parent="1">
          <mxGeometry x="400" y="1120" width="40" height="20" as="geometry" />
        </mxCell>
        <mxCell id="4V5qH3O3NvcLZ8hvsB69-116" value="" style="rounded=0;whiteSpace=wrap;html=1;fillColor=#008a00;fontColor=#ffffff;strokeColor=#005700;" vertex="1" parent="1">
          <mxGeometry x="440" y="1120" width="40" height="20" as="geometry" />
        </mxCell>
        <mxCell id="4V5qH3O3NvcLZ8hvsB69-117" value="" style="rounded=0;whiteSpace=wrap;html=1;fillColor=#008a00;fontColor=#ffffff;strokeColor=#005700;" vertex="1" parent="1">
          <mxGeometry x="480" y="1120" width="40" height="20" as="geometry" />
        </mxCell>
        <mxCell id="4V5qH3O3NvcLZ8hvsB69-118" value="" style="rounded=0;whiteSpace=wrap;html=1;fillColor=#008a00;fontColor=#ffffff;strokeColor=#005700;" vertex="1" parent="1">
          <mxGeometry x="520" y="1120" width="40" height="20" as="geometry" />
        </mxCell>
        <mxCell id="4V5qH3O3NvcLZ8hvsB69-119" value="" style="rounded=0;whiteSpace=wrap;html=1;fillColor=#008a00;fontColor=#ffffff;strokeColor=#005700;" vertex="1" parent="1">
          <mxGeometry x="560" y="1120" width="40" height="20" as="geometry" />
        </mxCell>
        <mxCell id="4V5qH3O3NvcLZ8hvsB69-120" value="" style="rounded=0;whiteSpace=wrap;html=1;fillColor=#008a00;fontColor=#ffffff;strokeColor=#005700;" vertex="1" parent="1">
          <mxGeometry x="600" y="1120" width="40" height="20" as="geometry" />
        </mxCell>
        <mxCell id="4V5qH3O3NvcLZ8hvsB69-121" value="" style="rounded=0;whiteSpace=wrap;html=1;fillColor=#008a00;strokeColor=#005700;fontColor=#ffffff;" vertex="1" parent="1">
          <mxGeometry x="640" y="1120" width="40" height="20" as="geometry" />
        </mxCell>
        <mxCell id="4V5qH3O3NvcLZ8hvsB69-122" value="" style="rounded=0;whiteSpace=wrap;html=1;fillColor=#008a00;fontColor=#ffffff;strokeColor=#005700;" vertex="1" parent="1">
          <mxGeometry x="680" y="1120" width="40" height="20" as="geometry" />
        </mxCell>
        <mxCell id="4V5qH3O3NvcLZ8hvsB69-123" value="" style="rounded=0;whiteSpace=wrap;html=1;fillColor=#008a00;fontColor=#ffffff;strokeColor=#005700;" vertex="1" parent="1">
          <mxGeometry x="720" y="1120" width="40" height="20" as="geometry" />
        </mxCell>
        <mxCell id="4V5qH3O3NvcLZ8hvsB69-124" value="" style="rounded=0;whiteSpace=wrap;html=1;fillColor=#008a00;fontColor=#ffffff;strokeColor=#005700;" vertex="1" parent="1">
          <mxGeometry x="760" y="1120" width="40" height="20" as="geometry" />
        </mxCell>
        <mxCell id="4V5qH3O3NvcLZ8hvsB69-125" value="" style="rounded=0;whiteSpace=wrap;html=1;fillColor=#008a00;strokeColor=#005700;fontColor=#ffffff;" vertex="1" parent="1">
          <mxGeometry x="800" y="1120" width="40" height="20" as="geometry" />
        </mxCell>
        <mxCell id="4V5qH3O3NvcLZ8hvsB69-126" value="" style="rounded=0;whiteSpace=wrap;html=1;fillColor=#008a00;fontColor=#ffffff;strokeColor=#005700;" vertex="1" parent="1">
          <mxGeometry x="840" y="1120" width="40" height="20" as="geometry" />
        </mxCell>
        <mxCell id="4V5qH3O3NvcLZ8hvsB69-127" value="" style="rounded=0;whiteSpace=wrap;html=1;fillColor=#008a00;fontColor=#ffffff;strokeColor=#005700;" vertex="1" parent="1">
          <mxGeometry x="880" y="1120" width="40" height="20" as="geometry" />
        </mxCell>
        <mxCell id="4V5qH3O3NvcLZ8hvsB69-128" value="" style="rounded=0;whiteSpace=wrap;html=1;fillColor=#008a00;fontColor=#ffffff;strokeColor=#005700;" vertex="1" parent="1">
          <mxGeometry x="920" y="1120" width="40" height="20" as="geometry" />
        </mxCell>
        <mxCell id="4V5qH3O3NvcLZ8hvsB69-129" value="" style="rounded=0;whiteSpace=wrap;html=1;fillColor=#008a00;fontColor=#ffffff;strokeColor=#005700;" vertex="1" parent="1">
          <mxGeometry x="960" y="1120" width="40" height="20" as="geometry" />
        </mxCell>
        <mxCell id="4V5qH3O3NvcLZ8hvsB69-130" value="" style="rounded=0;whiteSpace=wrap;html=1;fillColor=#008a00;fontColor=#ffffff;strokeColor=#005700;" vertex="1" parent="1">
          <mxGeometry x="1000" y="1120" width="40" height="20" as="geometry" />
        </mxCell>
        <mxCell id="4V5qH3O3NvcLZ8hvsB69-131" value="" style="rounded=0;whiteSpace=wrap;html=1;fillColor=#008a00;strokeColor=#005700;fontColor=#ffffff;" vertex="1" parent="1">
          <mxGeometry x="1040" y="1120" width="40" height="20" as="geometry" />
        </mxCell>
        <mxCell id="4V5qH3O3NvcLZ8hvsB69-132" value="" style="rounded=0;whiteSpace=wrap;html=1;fillColor=#008a00;fontColor=#ffffff;strokeColor=#005700;" vertex="1" parent="1">
          <mxGeometry x="1080" y="1120" width="40" height="20" as="geometry" />
        </mxCell>
        <mxCell id="4V5qH3O3NvcLZ8hvsB69-133" value="" style="rounded=0;whiteSpace=wrap;html=1;fillColor=#008a00;fontColor=#ffffff;strokeColor=#005700;" vertex="1" parent="1">
          <mxGeometry x="1120" y="1120" width="40" height="20" as="geometry" />
        </mxCell>
        <mxCell id="4V5qH3O3NvcLZ8hvsB69-134" value="" style="rounded=0;whiteSpace=wrap;html=1;fillColor=#008a00;fontColor=#ffffff;strokeColor=#005700;" vertex="1" parent="1">
          <mxGeometry x="1160" y="1120" width="40" height="20" as="geometry" />
        </mxCell>
        <mxCell id="4V5qH3O3NvcLZ8hvsB69-135" value="" style="rounded=0;whiteSpace=wrap;html=1;fillColor=#008a00;strokeColor=#005700;fontColor=#ffffff;" vertex="1" parent="1">
          <mxGeometry x="1200" y="1120" width="40" height="20" as="geometry" />
        </mxCell>
        <mxCell id="4V5qH3O3NvcLZ8hvsB69-136" value="" style="rounded=0;whiteSpace=wrap;html=1;fillColor=#008a00;fontColor=#ffffff;strokeColor=#005700;" vertex="1" parent="1">
          <mxGeometry x="1240" y="1120" width="40" height="20" as="geometry" />
        </mxCell>
        <mxCell id="4V5qH3O3NvcLZ8hvsB69-137" value="" style="rounded=0;whiteSpace=wrap;html=1;fillColor=#008a00;fontColor=#ffffff;strokeColor=#005700;" vertex="1" parent="1">
          <mxGeometry x="1280" y="1120" width="40" height="20" as="geometry" />
        </mxCell>
        <mxCell id="4V5qH3O3NvcLZ8hvsB69-138" value="" style="rounded=0;whiteSpace=wrap;html=1;fillColor=#008a00;fontColor=#ffffff;strokeColor=#005700;" vertex="1" parent="1">
          <mxGeometry x="1320" y="1120" width="40" height="20" as="geometry" />
        </mxCell>
        <mxCell id="4V5qH3O3NvcLZ8hvsB69-139" value="" style="rounded=0;whiteSpace=wrap;html=1;fillColor=#008a00;fontColor=#ffffff;strokeColor=#005700;" vertex="1" parent="1">
          <mxGeometry x="1360" y="1120" width="40" height="20" as="geometry" />
        </mxCell>
        <mxCell id="4V5qH3O3NvcLZ8hvsB69-140" value="" style="rounded=0;whiteSpace=wrap;html=1;fillColor=#008a00;fontColor=#ffffff;strokeColor=#005700;" vertex="1" parent="1">
          <mxGeometry x="1400" y="1120" width="40" height="20" as="geometry" />
        </mxCell>
        <mxCell id="4V5qH3O3NvcLZ8hvsB69-141" value="" style="rounded=0;whiteSpace=wrap;html=1;fillColor=#008a00;strokeColor=#005700;fontColor=#ffffff;" vertex="1" parent="1">
          <mxGeometry x="1440" y="1120" width="40" height="20" as="geometry" />
        </mxCell>
        <mxCell id="4V5qH3O3NvcLZ8hvsB69-142" value="" style="rounded=0;whiteSpace=wrap;html=1;fillColor=#008a00;fontColor=#ffffff;strokeColor=#005700;" vertex="1" parent="1">
          <mxGeometry x="1480" y="1120" width="40" height="20" as="geometry" />
        </mxCell>
        <mxCell id="4V5qH3O3NvcLZ8hvsB69-143" value="" style="rounded=0;whiteSpace=wrap;html=1;fillColor=#008a00;fontColor=#ffffff;strokeColor=#005700;" vertex="1" parent="1">
          <mxGeometry x="1520" y="1120" width="40" height="20" as="geometry" />
        </mxCell>
        <mxCell id="4V5qH3O3NvcLZ8hvsB69-144" value="" style="rounded=0;whiteSpace=wrap;html=1;fillColor=#008a00;fontColor=#ffffff;strokeColor=#005700;" vertex="1" parent="1">
          <mxGeometry x="1560" y="1120" width="40" height="20" as="geometry" />
        </mxCell>
        <mxCell id="4V5qH3O3NvcLZ8hvsB69-145" value="" style="rounded=0;whiteSpace=wrap;html=1;fillColor=#008a00;strokeColor=#005700;fontColor=#ffffff;" vertex="1" parent="1">
          <mxGeometry x="1600" y="1120" width="40" height="20" as="geometry" />
        </mxCell>
        <mxCell id="4V5qH3O3NvcLZ8hvsB69-146" value="" style="rounded=0;whiteSpace=wrap;html=1;fillColor=#008a00;fontColor=#ffffff;strokeColor=#005700;" vertex="1" parent="1">
          <mxGeometry x="1640" y="1120" width="40" height="20" as="geometry" />
        </mxCell>
        <mxCell id="4V5qH3O3NvcLZ8hvsB69-147" value="" style="rounded=0;whiteSpace=wrap;html=1;fillColor=#008a00;fontColor=#ffffff;strokeColor=#005700;" vertex="1" parent="1">
          <mxGeometry x="1680" y="1120" width="40" height="20" as="geometry" />
        </mxCell>
        <mxCell id="4V5qH3O3NvcLZ8hvsB69-148" value="" style="rounded=0;whiteSpace=wrap;html=1;fillColor=#008a00;fontColor=#ffffff;strokeColor=#005700;" vertex="1" parent="1">
          <mxGeometry x="1720" y="1120" width="40" height="20" as="geometry" />
        </mxCell>
        <mxCell id="4V5qH3O3NvcLZ8hvsB69-149" value="" style="rounded=0;whiteSpace=wrap;html=1;fillColor=#008a00;fontColor=#ffffff;strokeColor=#005700;" vertex="1" parent="1">
          <mxGeometry x="1760" y="1120" width="40" height="20" as="geometry" />
        </mxCell>
        <mxCell id="4V5qH3O3NvcLZ8hvsB69-150" value="" style="rounded=0;whiteSpace=wrap;html=1;fillColor=#008a00;fontColor=#ffffff;strokeColor=#005700;" vertex="1" parent="1">
          <mxGeometry x="1800" y="1120" width="40" height="20" as="geometry" />
        </mxCell>
        <mxCell id="4V5qH3O3NvcLZ8hvsB69-151" value="" style="rounded=0;whiteSpace=wrap;html=1;fillColor=#008a00;fontColor=#ffffff;strokeColor=#005700;rotation=-90;" vertex="1" parent="1">
          <mxGeometry x="1830" y="330" width="40" height="20" as="geometry" />
        </mxCell>
        <mxCell id="4V5qH3O3NvcLZ8hvsB69-157" value="" style="rounded=0;whiteSpace=wrap;html=1;fillColor=#008a00;fontColor=#ffffff;strokeColor=#005700;rotation=-90;" vertex="1" parent="1">
          <mxGeometry x="1472.5" y="458" width="40" height="20" as="geometry" />
        </mxCell>
        <mxCell id="4V5qH3O3NvcLZ8hvsB69-158" value="" style="rounded=0;whiteSpace=wrap;html=1;fillColor=#008a00;fontColor=#ffffff;strokeColor=#005700;rotation=-90;" vertex="1" parent="1">
          <mxGeometry x="1472.5" y="498" width="40" height="20" as="geometry" />
        </mxCell>
        <mxCell id="4V5qH3O3NvcLZ8hvsB69-159" value="" style="rounded=0;whiteSpace=wrap;html=1;fillColor=#008a00;fontColor=#ffffff;strokeColor=#005700;rotation=-90;" vertex="1" parent="1">
          <mxGeometry x="1472.5" y="538" width="40" height="20" as="geometry" />
        </mxCell>
        <mxCell id="4V5qH3O3NvcLZ8hvsB69-160" value="" style="rounded=0;whiteSpace=wrap;html=1;fillColor=#008a00;fontColor=#ffffff;strokeColor=#005700;rotation=-90;" vertex="1" parent="1">
          <mxGeometry x="1472.5" y="578" width="40" height="20" as="geometry" />
        </mxCell>
        <mxCell id="4V5qH3O3NvcLZ8hvsB69-161" value="" style="rounded=0;whiteSpace=wrap;html=1;fillColor=#008a00;fontColor=#ffffff;strokeColor=#005700;rotation=-90;" vertex="1" parent="1">
          <mxGeometry x="1472.5" y="618" width="40" height="20" as="geometry" />
        </mxCell>
        <mxCell id="4V5qH3O3NvcLZ8hvsB69-162" value="" style="rounded=0;whiteSpace=wrap;html=1;fillColor=#008a00;fontColor=#ffffff;strokeColor=#005700;rotation=-90;" vertex="1" parent="1">
          <mxGeometry x="1472.5" y="658" width="40" height="20" as="geometry" />
        </mxCell>
        <mxCell id="4V5qH3O3NvcLZ8hvsB69-163" value="" style="rounded=0;whiteSpace=wrap;html=1;fillColor=#008a00;fontColor=#ffffff;strokeColor=#005700;rotation=-90;" vertex="1" parent="1">
          <mxGeometry x="1472.5" y="698" width="40" height="20" as="geometry" />
        </mxCell>
        <mxCell id="4V5qH3O3NvcLZ8hvsB69-164" value="" style="rounded=0;whiteSpace=wrap;html=1;fillColor=#008a00;fontColor=#ffffff;strokeColor=#005700;rotation=-90;" vertex="1" parent="1">
          <mxGeometry x="1472.5" y="738" width="40" height="20" as="geometry" />
        </mxCell>
        <mxCell id="4V5qH3O3NvcLZ8hvsB69-165" value="" style="rounded=0;whiteSpace=wrap;html=1;fillColor=#008a00;fontColor=#ffffff;strokeColor=#005700;rotation=-90;" vertex="1" parent="1">
          <mxGeometry x="1830" y="890" width="40" height="20" as="geometry" />
        </mxCell>
        <mxCell id="4V5qH3O3NvcLZ8hvsB69-166" value="" style="rounded=0;whiteSpace=wrap;html=1;fillColor=#008a00;fontColor=#ffffff;strokeColor=#005700;rotation=-90;" vertex="1" parent="1">
          <mxGeometry x="1830" y="930" width="40" height="20" as="geometry" />
        </mxCell>
        <mxCell id="4V5qH3O3NvcLZ8hvsB69-167" value="" style="rounded=0;whiteSpace=wrap;html=1;fillColor=#008a00;fontColor=#ffffff;strokeColor=#005700;rotation=-90;" vertex="1" parent="1">
          <mxGeometry x="1830" y="970" width="40" height="20" as="geometry" />
        </mxCell>
        <mxCell id="4V5qH3O3NvcLZ8hvsB69-168" value="" style="rounded=0;whiteSpace=wrap;html=1;fillColor=#008a00;fontColor=#ffffff;strokeColor=#005700;rotation=-90;" vertex="1" parent="1">
          <mxGeometry x="1830" y="1010" width="40" height="20" as="geometry" />
        </mxCell>
        <mxCell id="4V5qH3O3NvcLZ8hvsB69-169" value="" style="rounded=0;whiteSpace=wrap;html=1;fillColor=#008a00;fontColor=#ffffff;strokeColor=#005700;rotation=-90;" vertex="1" parent="1">
          <mxGeometry x="1830" y="1050" width="40" height="20" as="geometry" />
        </mxCell>
        <mxCell id="4V5qH3O3NvcLZ8hvsB69-170" value="" style="rounded=0;whiteSpace=wrap;html=1;fillColor=#008a00;fontColor=#ffffff;strokeColor=#005700;rotation=-90;" vertex="1" parent="1">
          <mxGeometry x="1830" y="1090" width="40" height="20" as="geometry" />
        </mxCell>
        <mxCell id="4V5qH3O3NvcLZ8hvsB69-171" value="" style="rounded=0;whiteSpace=wrap;html=1;fillColor=#008a00;fontColor=#ffffff;strokeColor=#005700;rotation=-90;" vertex="1" parent="1">
          <mxGeometry x="310" y="1010" width="40" height="20" as="geometry" />
        </mxCell>
        <mxCell id="4V5qH3O3NvcLZ8hvsB69-172" value="" style="rounded=0;whiteSpace=wrap;html=1;fillColor=#008a00;fontColor=#ffffff;strokeColor=#005700;rotation=-90;" vertex="1" parent="1">
          <mxGeometry x="310" y="970" width="40" height="20" as="geometry" />
        </mxCell>
        <mxCell id="4V5qH3O3NvcLZ8hvsB69-173" value="" style="rounded=0;whiteSpace=wrap;html=1;fillColor=#008a00;fontColor=#ffffff;strokeColor=#005700;rotation=-180;" vertex="1" parent="1">
          <mxGeometry x="340" y="1020" width="40" height="20" as="geometry" />
        </mxCell>
        <mxCell id="4V5qH3O3NvcLZ8hvsB69-174" value="" style="rounded=0;whiteSpace=wrap;html=1;fillColor=#008a00;fontColor=#ffffff;strokeColor=#005700;rotation=-180;" vertex="1" parent="1">
          <mxGeometry x="380" y="1020" width="40" height="20" as="geometry" />
        </mxCell>
        <mxCell id="4V5qH3O3NvcLZ8hvsB69-175" value="" style="rounded=0;whiteSpace=wrap;html=1;fillColor=#008a00;fontColor=#ffffff;strokeColor=#005700;rotation=-180;" vertex="1" parent="1">
          <mxGeometry x="420" y="1020" width="40" height="20" as="geometry" />
        </mxCell>
        <mxCell id="4V5qH3O3NvcLZ8hvsB69-176" value="" style="rounded=0;whiteSpace=wrap;html=1;fillColor=#008a00;fontColor=#ffffff;strokeColor=#005700;rotation=-180;" vertex="1" parent="1">
          <mxGeometry x="460" y="1020" width="40" height="20" as="geometry" />
        </mxCell>
        <mxCell id="4V5qH3O3NvcLZ8hvsB69-177" value="" style="rounded=0;whiteSpace=wrap;html=1;fillColor=#008a00;fontColor=#ffffff;strokeColor=#005700;rotation=-180;" vertex="1" parent="1">
          <mxGeometry x="500" y="1020" width="40" height="20" as="geometry" />
        </mxCell>
        <mxCell id="4V5qH3O3NvcLZ8hvsB69-178" value="" style="rounded=0;whiteSpace=wrap;html=1;fillColor=#008a00;fontColor=#ffffff;strokeColor=#005700;rotation=-205;" vertex="1" parent="1">
          <mxGeometry x="695" y="941" width="40" height="20" as="geometry" />
        </mxCell>
        <mxCell id="4V5qH3O3NvcLZ8hvsB69-179" value="" style="rounded=0;whiteSpace=wrap;html=1;fillColor=#008a00;fontColor=#ffffff;strokeColor=#005700;rotation=-90;" vertex="1" parent="1">
          <mxGeometry x="530" y="1010" width="40" height="20" as="geometry" />
        </mxCell>
        <mxCell id="4V5qH3O3NvcLZ8hvsB69-180" value="" style="rounded=0;whiteSpace=wrap;html=1;fillColor=#008a00;fontColor=#ffffff;strokeColor=#005700;rotation=-135;direction=south;" vertex="1" parent="1">
          <mxGeometry x="669" y="956" width="20" height="40" as="geometry" />
        </mxCell>
        <mxCell id="4V5qH3O3NvcLZ8hvsB69-183" value="" style="rounded=0;whiteSpace=wrap;html=1;fillColor=#008a00;fontColor=#ffffff;strokeColor=#005700;rotation=-75;" vertex="1" parent="1">
          <mxGeometry x="636" y="1006" width="40" height="20" as="geometry" />
        </mxCell>
        <mxCell id="4V5qH3O3NvcLZ8hvsB69-184" value="" style="rounded=0;whiteSpace=wrap;html=1;fillColor=#008a00;fontColor=#ffffff;strokeColor=#005700;rotation=-180;" vertex="1" parent="1">
          <mxGeometry x="738" y="931" width="40" height="20" as="geometry" />
        </mxCell>
        <mxCell id="4V5qH3O3NvcLZ8hvsB69-185" value="" style="rounded=0;whiteSpace=wrap;html=1;fillColor=#008a00;fontColor=#ffffff;strokeColor=#005700;rotation=-75;" vertex="1" parent="1">
          <mxGeometry x="536" y="967" width="40" height="20" as="geometry" />
        </mxCell>
        <mxCell id="4V5qH3O3NvcLZ8hvsB69-186" value="" style="rounded=0;whiteSpace=wrap;html=1;fillColor=#008a00;fontColor=#ffffff;strokeColor=#005700;rotation=-135;direction=south;" vertex="1" parent="1">
          <mxGeometry x="593" y="885" width="20" height="40" as="geometry" />
        </mxCell>
        <mxCell id="4V5qH3O3NvcLZ8hvsB69-187" value="" style="rounded=0;whiteSpace=wrap;html=1;fillColor=#008a00;fontColor=#ffffff;strokeColor=#005700;rotation=-125;direction=south;" vertex="1" parent="1">
          <mxGeometry x="626" y="858" width="20" height="40" as="geometry" />
        </mxCell>
        <mxCell id="4V5qH3O3NvcLZ8hvsB69-188" value="" style="rounded=0;whiteSpace=wrap;html=1;fillColor=#008a00;fontColor=#ffffff;strokeColor=#005700;rotation=-200;" vertex="1" parent="1">
          <mxGeometry x="655" y="848" width="40" height="20" as="geometry" />
        </mxCell>
        <mxCell id="4V5qH3O3NvcLZ8hvsB69-189" value="" style="rounded=0;whiteSpace=wrap;html=1;fillColor=#008a00;fontColor=#ffffff;strokeColor=#005700;rotation=-190;" vertex="1" parent="1">
          <mxGeometry x="697" y="837" width="40" height="20" as="geometry" />
        </mxCell>
        <mxCell id="4V5qH3O3NvcLZ8hvsB69-190" value="" style="rounded=0;whiteSpace=wrap;html=1;fillColor=#008a00;fontColor=#ffffff;strokeColor=#005700;rotation=-180;" vertex="1" parent="1">
          <mxGeometry x="739" y="834" width="40" height="20" as="geometry" />
        </mxCell>
        <mxCell id="4V5qH3O3NvcLZ8hvsB69-191" value="" style="rounded=0;whiteSpace=wrap;html=1;fillColor=#008a00;fontColor=#ffffff;strokeColor=#005700;rotation=-55;" vertex="1" parent="1">
          <mxGeometry x="555" y="927" width="40" height="20" as="geometry" />
        </mxCell>
        <mxCell id="4V5qH3O3NvcLZ8hvsB69-193" value="" style="rounded=0;whiteSpace=wrap;html=1;fillColor=#008a00;fontColor=#ffffff;strokeColor=#005700;rotation=-180;" vertex="1" parent="1">
          <mxGeometry x="667" y="1020" width="40" height="20" as="geometry" />
        </mxCell>
        <mxCell id="4V5qH3O3NvcLZ8hvsB69-194" value="" style="rounded=0;whiteSpace=wrap;html=1;fillColor=#008a00;fontColor=#ffffff;strokeColor=#005700;rotation=-180;" vertex="1" parent="1">
          <mxGeometry x="708" y="1020" width="40" height="20" as="geometry" />
        </mxCell>
        <mxCell id="4V5qH3O3NvcLZ8hvsB69-195" value="" style="rounded=0;whiteSpace=wrap;html=1;fillColor=#008a00;fontColor=#ffffff;strokeColor=#005700;rotation=-180;" vertex="1" parent="1">
          <mxGeometry x="748" y="1020" width="40" height="20" as="geometry" />
        </mxCell>
        <mxCell id="4V5qH3O3NvcLZ8hvsB69-196" value="" style="rounded=0;whiteSpace=wrap;html=1;fillColor=#008a00;fontColor=#ffffff;strokeColor=#005700;rotation=-90;" vertex="1" parent="1">
          <mxGeometry x="769" y="941" width="40" height="20" as="geometry" />
        </mxCell>
        <mxCell id="4V5qH3O3NvcLZ8hvsB69-197" value="" style="rounded=0;whiteSpace=wrap;html=1;fillColor=#008a00;fontColor=#ffffff;strokeColor=#005700;rotation=-90;" vertex="1" parent="1">
          <mxGeometry x="769" y="986" width="40" height="20" as="geometry" />
        </mxCell>
        <mxCell id="4V5qH3O3NvcLZ8hvsB69-198" value="" style="rounded=0;whiteSpace=wrap;html=1;fillColor=#008a00;fontColor=#ffffff;strokeColor=#005700;rotation=-90;" vertex="1" parent="1">
          <mxGeometry x="770" y="825" width="40" height="20" as="geometry" />
        </mxCell>
        <mxCell id="4V5qH3O3NvcLZ8hvsB69-199" value="" style="rounded=0;whiteSpace=wrap;html=1;fillColor=#008a00;fontColor=#ffffff;strokeColor=#005700;rotation=-90;" vertex="1" parent="1">
          <mxGeometry x="310" y="931" width="40" height="20" as="geometry" />
        </mxCell>
        <mxCell id="4V5qH3O3NvcLZ8hvsB69-200" value="" style="rounded=0;whiteSpace=wrap;html=1;fillColor=#008a00;fontColor=#ffffff;strokeColor=#005700;rotation=-180;" vertex="1" parent="1">
          <mxGeometry x="739" y="802" width="40" height="20" as="geometry" />
        </mxCell>
        <mxCell id="4V5qH3O3NvcLZ8hvsB69-201" value="" style="rounded=0;whiteSpace=wrap;html=1;fillColor=#008a00;fontColor=#ffffff;strokeColor=#005700;rotation=-180;" vertex="1" parent="1">
          <mxGeometry x="699" y="802" width="40" height="20" as="geometry" />
        </mxCell>
        <mxCell id="4V5qH3O3NvcLZ8hvsB69-202" value="" style="rounded=0;whiteSpace=wrap;html=1;fillColor=#008a00;fontColor=#ffffff;strokeColor=#005700;rotation=-180;" vertex="1" parent="1">
          <mxGeometry x="659" y="802" width="40" height="20" as="geometry" />
        </mxCell>
        <mxCell id="4V5qH3O3NvcLZ8hvsB69-203" value="" style="rounded=0;whiteSpace=wrap;html=1;fillColor=#008a00;fontColor=#ffffff;strokeColor=#005700;rotation=-180;" vertex="1" parent="1">
          <mxGeometry x="619" y="802" width="40" height="20" as="geometry" />
        </mxCell>
        <mxCell id="4V5qH3O3NvcLZ8hvsB69-204" value="" style="rounded=0;whiteSpace=wrap;html=1;fillColor=#008a00;fontColor=#ffffff;strokeColor=#005700;rotation=-180;" vertex="1" parent="1">
          <mxGeometry x="579" y="802" width="40" height="20" as="geometry" />
        </mxCell>
        <mxCell id="4V5qH3O3NvcLZ8hvsB69-205" value="" style="rounded=0;whiteSpace=wrap;html=1;fillColor=#008a00;fontColor=#ffffff;strokeColor=#005700;rotation=-55;" vertex="1" parent="1">
          <mxGeometry x="1701.5" y="469" width="40" height="20" as="geometry" />
        </mxCell>
        <mxCell id="4V5qH3O3NvcLZ8hvsB69-209" value="" style="rounded=0;whiteSpace=wrap;html=1;fillColor=#008a00;fontColor=#ffffff;strokeColor=#005700;rotation=-15;" vertex="1" parent="1">
          <mxGeometry x="496" y="810" width="40" height="20" as="geometry" />
        </mxCell>
        <mxCell id="4V5qH3O3NvcLZ8hvsB69-210" value="" style="rounded=0;whiteSpace=wrap;html=1;fillColor=#008a00;fontColor=#ffffff;strokeColor=#005700;rotation=-180;" vertex="1" parent="1">
          <mxGeometry x="539" y="802" width="40" height="20" as="geometry" />
        </mxCell>
        <mxCell id="4V5qH3O3NvcLZ8hvsB69-211" value="" style="rounded=0;whiteSpace=wrap;html=1;fillColor=#008a00;fontColor=#ffffff;strokeColor=#005700;rotation=-15;" vertex="1" parent="1">
          <mxGeometry x="457" y="821" width="40" height="20" as="geometry" />
        </mxCell>
        <mxCell id="4V5qH3O3NvcLZ8hvsB69-212" value="" style="rounded=0;whiteSpace=wrap;html=1;fillColor=#008a00;fontColor=#ffffff;strokeColor=#005700;rotation=-15;" vertex="1" parent="1">
          <mxGeometry x="417" y="832" width="40" height="20" as="geometry" />
        </mxCell>
        <mxCell id="4V5qH3O3NvcLZ8hvsB69-213" value="" style="rounded=0;whiteSpace=wrap;html=1;fillColor=#008a00;fontColor=#ffffff;strokeColor=#005700;rotation=-15;" vertex="1" parent="1">
          <mxGeometry x="377" y="843" width="40" height="20" as="geometry" />
        </mxCell>
        <mxCell id="4V5qH3O3NvcLZ8hvsB69-214" value="" style="rounded=0;whiteSpace=wrap;html=1;fillColor=#008a00;fontColor=#ffffff;strokeColor=#005700;rotation=-15;" vertex="1" parent="1">
          <mxGeometry x="337" y="854" width="40" height="20" as="geometry" />
        </mxCell>
        <mxCell id="4V5qH3O3NvcLZ8hvsB69-215" value="" style="rounded=0;whiteSpace=wrap;html=1;fillColor=#008a00;fontColor=#ffffff;strokeColor=#005700;rotation=-90;" vertex="1" parent="1">
          <mxGeometry x="310" y="890" width="40" height="20" as="geometry" />
        </mxCell>
        <mxCell id="4V5qH3O3NvcLZ8hvsB69-218" value="" style="rounded=0;whiteSpace=wrap;html=1;fillColor=#008a00;fontColor=#ffffff;strokeColor=#005700;rotation=-15;" vertex="1" parent="1">
          <mxGeometry x="485" y="690" width="40" height="20" as="geometry" />
        </mxCell>
        <mxCell id="4V5qH3O3NvcLZ8hvsB69-219" value="" style="rounded=0;whiteSpace=wrap;html=1;fillColor=#008a00;fontColor=#ffffff;strokeColor=#005700;rotation=-15;" vertex="1" parent="1">
          <mxGeometry x="446" y="701" width="40" height="20" as="geometry" />
        </mxCell>
        <mxCell id="4V5qH3O3NvcLZ8hvsB69-220" value="" style="rounded=0;whiteSpace=wrap;html=1;fillColor=#008a00;fontColor=#ffffff;strokeColor=#005700;rotation=-15;" vertex="1" parent="1">
          <mxGeometry x="406" y="712" width="40" height="20" as="geometry" />
        </mxCell>
        <mxCell id="4V5qH3O3NvcLZ8hvsB69-221" value="" style="rounded=0;whiteSpace=wrap;html=1;fillColor=#008a00;fontColor=#ffffff;strokeColor=#005700;rotation=-15;" vertex="1" parent="1">
          <mxGeometry x="366" y="723" width="40" height="20" as="geometry" />
        </mxCell>
        <mxCell id="4V5qH3O3NvcLZ8hvsB69-222" value="" style="rounded=0;whiteSpace=wrap;html=1;fillColor=#008a00;fontColor=#ffffff;strokeColor=#005700;rotation=-15;" vertex="1" parent="1">
          <mxGeometry x="326" y="734" width="40" height="20" as="geometry" />
        </mxCell>
        <mxCell id="4V5qH3O3NvcLZ8hvsB69-223" value="" style="rounded=0;whiteSpace=wrap;html=1;fillColor=#008a00;fontColor=#ffffff;strokeColor=#005700;rotation=-180;" vertex="1" parent="1">
          <mxGeometry x="729" y="685" width="40" height="20" as="geometry" />
        </mxCell>
        <mxCell id="4V5qH3O3NvcLZ8hvsB69-224" value="" style="rounded=0;whiteSpace=wrap;html=1;fillColor=#008a00;fontColor=#ffffff;strokeColor=#005700;rotation=-180;" vertex="1" parent="1">
          <mxGeometry x="689" y="685" width="40" height="20" as="geometry" />
        </mxCell>
        <mxCell id="4V5qH3O3NvcLZ8hvsB69-225" value="" style="rounded=0;whiteSpace=wrap;html=1;fillColor=#008a00;fontColor=#ffffff;strokeColor=#005700;rotation=-180;" vertex="1" parent="1">
          <mxGeometry x="649" y="685" width="40" height="20" as="geometry" />
        </mxCell>
        <mxCell id="4V5qH3O3NvcLZ8hvsB69-226" value="" style="rounded=0;whiteSpace=wrap;html=1;fillColor=#008a00;fontColor=#ffffff;strokeColor=#005700;rotation=-180;" vertex="1" parent="1">
          <mxGeometry x="609" y="685" width="40" height="20" as="geometry" />
        </mxCell>
        <mxCell id="4V5qH3O3NvcLZ8hvsB69-227" value="" style="rounded=0;whiteSpace=wrap;html=1;fillColor=#008a00;fontColor=#ffffff;strokeColor=#005700;rotation=-180;" vertex="1" parent="1">
          <mxGeometry x="569" y="685" width="40" height="20" as="geometry" />
        </mxCell>
        <mxCell id="4V5qH3O3NvcLZ8hvsB69-228" value="" style="rounded=0;whiteSpace=wrap;html=1;fillColor=#008a00;fontColor=#ffffff;strokeColor=#005700;rotation=-180;" vertex="1" parent="1">
          <mxGeometry x="529" y="685" width="40" height="20" as="geometry" />
        </mxCell>
        <mxCell id="4V5qH3O3NvcLZ8hvsB69-229" value="" style="rounded=0;whiteSpace=wrap;html=1;fillColor=#008a00;fontColor=#ffffff;strokeColor=#005700;rotation=-90;" vertex="1" parent="1">
          <mxGeometry x="311" y="703" width="40" height="20" as="geometry" />
        </mxCell>
        <mxCell id="4V5qH3O3NvcLZ8hvsB69-230" value="" style="rounded=0;whiteSpace=wrap;html=1;fillColor=#008a00;fontColor=#ffffff;strokeColor=#005700;rotation=-90;" vertex="1" parent="1">
          <mxGeometry x="311" y="663" width="40" height="20" as="geometry" />
        </mxCell>
        <mxCell id="4V5qH3O3NvcLZ8hvsB69-231" value="" style="rounded=0;whiteSpace=wrap;html=1;fillColor=#008a00;fontColor=#ffffff;strokeColor=#005700;rotation=-90;" vertex="1" parent="1">
          <mxGeometry x="311" y="624" width="40" height="20" as="geometry" />
        </mxCell>
        <mxCell id="4V5qH3O3NvcLZ8hvsB69-234" value="" style="rounded=0;whiteSpace=wrap;html=1;fillColor=#008a00;fontColor=#ffffff;strokeColor=#005700;rotation=-90;" vertex="1" parent="1">
          <mxGeometry x="311" y="492" width="40" height="20" as="geometry" />
        </mxCell>
        <mxCell id="4V5qH3O3NvcLZ8hvsB69-235" value="" style="rounded=0;whiteSpace=wrap;html=1;fillColor=#008a00;fontColor=#ffffff;strokeColor=#005700;rotation=-90;" vertex="1" parent="1">
          <mxGeometry x="311" y="453" width="40" height="20" as="geometry" />
        </mxCell>
        <mxCell id="4V5qH3O3NvcLZ8hvsB69-236" value="" style="rounded=0;whiteSpace=wrap;html=1;fillColor=#008a00;fontColor=#ffffff;strokeColor=#005700;rotation=-90;" vertex="1" parent="1">
          <mxGeometry x="311" y="412" width="40" height="20" as="geometry" />
        </mxCell>
        <mxCell id="4V5qH3O3NvcLZ8hvsB69-237" value="" style="rounded=0;whiteSpace=wrap;html=1;fillColor=#008a00;fontColor=#ffffff;strokeColor=#005700;rotation=-180;" vertex="1" parent="1">
          <mxGeometry x="543" y="502" width="40" height="20" as="geometry" />
        </mxCell>
        <mxCell id="4V5qH3O3NvcLZ8hvsB69-238" value="" style="rounded=0;whiteSpace=wrap;html=1;fillColor=#008a00;fontColor=#ffffff;strokeColor=#005700;rotation=-180;" vertex="1" parent="1">
          <mxGeometry x="503" y="502" width="40" height="20" as="geometry" />
        </mxCell>
        <mxCell id="4V5qH3O3NvcLZ8hvsB69-239" value="" style="rounded=0;whiteSpace=wrap;html=1;fillColor=#008a00;fontColor=#ffffff;strokeColor=#005700;rotation=-180;" vertex="1" parent="1">
          <mxGeometry x="463" y="502" width="40" height="20" as="geometry" />
        </mxCell>
        <mxCell id="4V5qH3O3NvcLZ8hvsB69-240" value="" style="rounded=0;whiteSpace=wrap;html=1;fillColor=#008a00;fontColor=#ffffff;strokeColor=#005700;rotation=-180;" vertex="1" parent="1">
          <mxGeometry x="423" y="502" width="40" height="20" as="geometry" />
        </mxCell>
        <mxCell id="4V5qH3O3NvcLZ8hvsB69-241" value="" style="rounded=0;whiteSpace=wrap;html=1;fillColor=#008a00;fontColor=#ffffff;strokeColor=#005700;rotation=-180;" vertex="1" parent="1">
          <mxGeometry x="383" y="502" width="40" height="20" as="geometry" />
        </mxCell>
        <mxCell id="4V5qH3O3NvcLZ8hvsB69-242" value="" style="rounded=0;whiteSpace=wrap;html=1;fillColor=#008a00;fontColor=#ffffff;strokeColor=#005700;rotation=-180;" vertex="1" parent="1">
          <mxGeometry x="343" y="502" width="40" height="20" as="geometry" />
        </mxCell>
        <mxCell id="4V5qH3O3NvcLZ8hvsB69-243" value="" style="rounded=0;whiteSpace=wrap;html=1;fillColor=#008a00;fontColor=#ffffff;strokeColor=#005700;rotation=-180;" vertex="1" parent="1">
          <mxGeometry x="783" y="502" width="40" height="20" as="geometry" />
        </mxCell>
        <mxCell id="4V5qH3O3NvcLZ8hvsB69-244" value="" style="rounded=0;whiteSpace=wrap;html=1;fillColor=#008a00;fontColor=#ffffff;strokeColor=#005700;rotation=-180;" vertex="1" parent="1">
          <mxGeometry x="743" y="502" width="40" height="20" as="geometry" />
        </mxCell>
        <mxCell id="4V5qH3O3NvcLZ8hvsB69-245" value="" style="rounded=0;whiteSpace=wrap;html=1;fillColor=#008a00;fontColor=#ffffff;strokeColor=#005700;rotation=-180;" vertex="1" parent="1">
          <mxGeometry x="703" y="502" width="40" height="20" as="geometry" />
        </mxCell>
        <mxCell id="4V5qH3O3NvcLZ8hvsB69-246" value="" style="rounded=0;whiteSpace=wrap;html=1;fillColor=#008a00;fontColor=#ffffff;strokeColor=#005700;rotation=-180;" vertex="1" parent="1">
          <mxGeometry x="663" y="502" width="40" height="20" as="geometry" />
        </mxCell>
        <mxCell id="4V5qH3O3NvcLZ8hvsB69-247" value="" style="rounded=0;whiteSpace=wrap;html=1;fillColor=#008a00;fontColor=#ffffff;strokeColor=#005700;rotation=-180;" vertex="1" parent="1">
          <mxGeometry x="623" y="502" width="40" height="20" as="geometry" />
        </mxCell>
        <mxCell id="4V5qH3O3NvcLZ8hvsB69-248" value="" style="rounded=0;whiteSpace=wrap;html=1;fillColor=#008a00;fontColor=#ffffff;strokeColor=#005700;rotation=-180;" vertex="1" parent="1">
          <mxGeometry x="583" y="502" width="40" height="20" as="geometry" />
        </mxCell>
        <mxCell id="4V5qH3O3NvcLZ8hvsB69-263" value="" style="rounded=0;whiteSpace=wrap;html=1;fillColor=#008a00;fontColor=#ffffff;strokeColor=#005700;rotation=-180;" vertex="1" parent="1">
          <mxGeometry x="542" y="601" width="40" height="20" as="geometry" />
        </mxCell>
        <mxCell id="4V5qH3O3NvcLZ8hvsB69-264" value="" style="rounded=0;whiteSpace=wrap;html=1;fillColor=#008a00;fontColor=#ffffff;strokeColor=#005700;rotation=-180;" vertex="1" parent="1">
          <mxGeometry x="502" y="601" width="40" height="20" as="geometry" />
        </mxCell>
        <mxCell id="4V5qH3O3NvcLZ8hvsB69-265" value="" style="rounded=0;whiteSpace=wrap;html=1;fillColor=#008a00;fontColor=#ffffff;strokeColor=#005700;rotation=-180;" vertex="1" parent="1">
          <mxGeometry x="462" y="601" width="40" height="20" as="geometry" />
        </mxCell>
        <mxCell id="4V5qH3O3NvcLZ8hvsB69-266" value="" style="rounded=0;whiteSpace=wrap;html=1;fillColor=#008a00;fontColor=#ffffff;strokeColor=#005700;rotation=-180;" vertex="1" parent="1">
          <mxGeometry x="422" y="601" width="40" height="20" as="geometry" />
        </mxCell>
        <mxCell id="4V5qH3O3NvcLZ8hvsB69-267" value="" style="rounded=0;whiteSpace=wrap;html=1;fillColor=#008a00;fontColor=#ffffff;strokeColor=#005700;rotation=-180;" vertex="1" parent="1">
          <mxGeometry x="382" y="601" width="40" height="20" as="geometry" />
        </mxCell>
        <mxCell id="4V5qH3O3NvcLZ8hvsB69-268" value="" style="rounded=0;whiteSpace=wrap;html=1;fillColor=#008a00;fontColor=#ffffff;strokeColor=#005700;rotation=-180;" vertex="1" parent="1">
          <mxGeometry x="342" y="601" width="40" height="20" as="geometry" />
        </mxCell>
        <mxCell id="4V5qH3O3NvcLZ8hvsB69-269" value="" style="rounded=0;whiteSpace=wrap;html=1;fillColor=#008a00;fontColor=#ffffff;strokeColor=#005700;rotation=-180;" vertex="1" parent="1">
          <mxGeometry x="782" y="601" width="40" height="20" as="geometry" />
        </mxCell>
        <mxCell id="4V5qH3O3NvcLZ8hvsB69-270" value="" style="rounded=0;whiteSpace=wrap;html=1;fillColor=#008a00;fontColor=#ffffff;strokeColor=#005700;rotation=-180;" vertex="1" parent="1">
          <mxGeometry x="742" y="601" width="40" height="20" as="geometry" />
        </mxCell>
        <mxCell id="4V5qH3O3NvcLZ8hvsB69-271" value="" style="rounded=0;whiteSpace=wrap;html=1;fillColor=#008a00;fontColor=#ffffff;strokeColor=#005700;rotation=-180;" vertex="1" parent="1">
          <mxGeometry x="702" y="601" width="40" height="20" as="geometry" />
        </mxCell>
        <mxCell id="4V5qH3O3NvcLZ8hvsB69-272" value="" style="rounded=0;whiteSpace=wrap;html=1;fillColor=#008a00;fontColor=#ffffff;strokeColor=#005700;rotation=-180;" vertex="1" parent="1">
          <mxGeometry x="662" y="601" width="40" height="20" as="geometry" />
        </mxCell>
        <mxCell id="4V5qH3O3NvcLZ8hvsB69-273" value="" style="rounded=0;whiteSpace=wrap;html=1;fillColor=#008a00;fontColor=#ffffff;strokeColor=#005700;rotation=-180;" vertex="1" parent="1">
          <mxGeometry x="622" y="601" width="40" height="20" as="geometry" />
        </mxCell>
        <mxCell id="4V5qH3O3NvcLZ8hvsB69-274" value="" style="rounded=0;whiteSpace=wrap;html=1;fillColor=#008a00;fontColor=#ffffff;strokeColor=#005700;rotation=-180;" vertex="1" parent="1">
          <mxGeometry x="582" y="601" width="40" height="20" as="geometry" />
        </mxCell>
        <mxCell id="4V5qH3O3NvcLZ8hvsB69-275" value="" style="rounded=0;whiteSpace=wrap;html=1;fillColor=#008a00;fontColor=#ffffff;strokeColor=#005700;rotation=-180;" vertex="1" parent="1">
          <mxGeometry x="1023" y="601" width="40" height="20" as="geometry" />
        </mxCell>
        <mxCell id="4V5qH3O3NvcLZ8hvsB69-276" value="" style="rounded=0;whiteSpace=wrap;html=1;fillColor=#008a00;fontColor=#ffffff;strokeColor=#005700;rotation=-180;" vertex="1" parent="1">
          <mxGeometry x="983" y="601" width="40" height="20" as="geometry" />
        </mxCell>
        <mxCell id="4V5qH3O3NvcLZ8hvsB69-281" value="" style="rounded=0;whiteSpace=wrap;html=1;fillColor=#008a00;fontColor=#ffffff;strokeColor=#005700;rotation=-180;" vertex="1" parent="1">
          <mxGeometry x="1263" y="601" width="40" height="20" as="geometry" />
        </mxCell>
        <mxCell id="4V5qH3O3NvcLZ8hvsB69-282" value="" style="rounded=0;whiteSpace=wrap;html=1;fillColor=#008a00;fontColor=#ffffff;strokeColor=#005700;rotation=-180;" vertex="1" parent="1">
          <mxGeometry x="1223" y="601" width="40" height="20" as="geometry" />
        </mxCell>
        <mxCell id="4V5qH3O3NvcLZ8hvsB69-283" value="" style="rounded=0;whiteSpace=wrap;html=1;fillColor=#008a00;fontColor=#ffffff;strokeColor=#005700;rotation=-180;" vertex="1" parent="1">
          <mxGeometry x="1183" y="601" width="40" height="20" as="geometry" />
        </mxCell>
        <mxCell id="4V5qH3O3NvcLZ8hvsB69-284" value="" style="rounded=0;whiteSpace=wrap;html=1;fillColor=#008a00;fontColor=#ffffff;strokeColor=#005700;rotation=-180;" vertex="1" parent="1">
          <mxGeometry x="1143" y="601" width="40" height="20" as="geometry" />
        </mxCell>
        <mxCell id="4V5qH3O3NvcLZ8hvsB69-285" value="" style="rounded=0;whiteSpace=wrap;html=1;fillColor=#008a00;fontColor=#ffffff;strokeColor=#005700;rotation=-180;" vertex="1" parent="1">
          <mxGeometry x="1103" y="601" width="40" height="20" as="geometry" />
        </mxCell>
        <mxCell id="4V5qH3O3NvcLZ8hvsB69-286" value="" style="rounded=0;whiteSpace=wrap;html=1;fillColor=#008a00;fontColor=#ffffff;strokeColor=#005700;rotation=-180;" vertex="1" parent="1">
          <mxGeometry x="1063" y="601" width="40" height="20" as="geometry" />
        </mxCell>
        <mxCell id="4V5qH3O3NvcLZ8hvsB69-287" value="" style="rounded=0;whiteSpace=wrap;html=1;fillColor=#008a00;fontColor=#ffffff;strokeColor=#005700;rotation=-180;" vertex="1" parent="1">
          <mxGeometry x="970" y="685" width="40" height="20" as="geometry" />
        </mxCell>
        <mxCell id="4V5qH3O3NvcLZ8hvsB69-292" value="" style="rounded=0;whiteSpace=wrap;html=1;fillColor=#008a00;fontColor=#ffffff;strokeColor=#005700;rotation=-180;" vertex="1" parent="1">
          <mxGeometry x="770" y="685" width="40" height="20" as="geometry" />
        </mxCell>
        <mxCell id="4V5qH3O3NvcLZ8hvsB69-293" value="" style="rounded=0;whiteSpace=wrap;html=1;fillColor=#008a00;fontColor=#ffffff;strokeColor=#005700;rotation=-180;" vertex="1" parent="1">
          <mxGeometry x="1210" y="685" width="40" height="20" as="geometry" />
        </mxCell>
        <mxCell id="4V5qH3O3NvcLZ8hvsB69-294" value="" style="rounded=0;whiteSpace=wrap;html=1;fillColor=#008a00;fontColor=#ffffff;strokeColor=#005700;rotation=-180;" vertex="1" parent="1">
          <mxGeometry x="1170" y="685" width="40" height="20" as="geometry" />
        </mxCell>
        <mxCell id="4V5qH3O3NvcLZ8hvsB69-295" value="" style="rounded=0;whiteSpace=wrap;html=1;fillColor=#008a00;fontColor=#ffffff;strokeColor=#005700;rotation=-180;" vertex="1" parent="1">
          <mxGeometry x="1130" y="685" width="40" height="20" as="geometry" />
        </mxCell>
        <mxCell id="4V5qH3O3NvcLZ8hvsB69-296" value="" style="rounded=0;whiteSpace=wrap;html=1;fillColor=#008a00;fontColor=#ffffff;strokeColor=#005700;rotation=-180;" vertex="1" parent="1">
          <mxGeometry x="1090" y="685" width="40" height="20" as="geometry" />
        </mxCell>
        <mxCell id="4V5qH3O3NvcLZ8hvsB69-297" value="" style="rounded=0;whiteSpace=wrap;html=1;fillColor=#008a00;fontColor=#ffffff;strokeColor=#005700;rotation=-180;" vertex="1" parent="1">
          <mxGeometry x="1050" y="685" width="40" height="20" as="geometry" />
        </mxCell>
        <mxCell id="4V5qH3O3NvcLZ8hvsB69-298" value="" style="rounded=0;whiteSpace=wrap;html=1;fillColor=#008a00;fontColor=#ffffff;strokeColor=#005700;rotation=-180;" vertex="1" parent="1">
          <mxGeometry x="1010" y="685" width="40" height="20" as="geometry" />
        </mxCell>
        <mxCell id="4V5qH3O3NvcLZ8hvsB69-299" value="" style="rounded=0;whiteSpace=wrap;html=1;fillColor=#008a00;fontColor=#ffffff;strokeColor=#005700;rotation=-180;" vertex="1" parent="1">
          <mxGeometry x="1080" y="817" width="40" height="20" as="geometry" />
        </mxCell>
        <mxCell id="4V5qH3O3NvcLZ8hvsB69-300" value="" style="rounded=0;whiteSpace=wrap;html=1;fillColor=#008a00;fontColor=#ffffff;strokeColor=#005700;rotation=-180;" vertex="1" parent="1">
          <mxGeometry x="1040" y="817" width="40" height="20" as="geometry" />
        </mxCell>
        <mxCell id="4V5qH3O3NvcLZ8hvsB69-301" value="" style="rounded=0;whiteSpace=wrap;html=1;fillColor=#008a00;fontColor=#ffffff;strokeColor=#005700;rotation=-180;" vertex="1" parent="1">
          <mxGeometry x="1000" y="817" width="40" height="20" as="geometry" />
        </mxCell>
        <mxCell id="4V5qH3O3NvcLZ8hvsB69-302" value="" style="rounded=0;whiteSpace=wrap;html=1;fillColor=#008a00;fontColor=#ffffff;strokeColor=#005700;rotation=-180;" vertex="1" parent="1">
          <mxGeometry x="960" y="817" width="40" height="20" as="geometry" />
        </mxCell>
        <mxCell id="4V5qH3O3NvcLZ8hvsB69-303" value="" style="rounded=0;whiteSpace=wrap;html=1;fillColor=#008a00;fontColor=#ffffff;strokeColor=#005700;rotation=-180;" vertex="1" parent="1">
          <mxGeometry x="920" y="817" width="40" height="20" as="geometry" />
        </mxCell>
        <mxCell id="4V5qH3O3NvcLZ8hvsB69-304" value="" style="rounded=0;whiteSpace=wrap;html=1;fillColor=#008a00;fontColor=#ffffff;strokeColor=#005700;rotation=-180;" vertex="1" parent="1">
          <mxGeometry x="880" y="817" width="40" height="20" as="geometry" />
        </mxCell>
        <mxCell id="4V5qH3O3NvcLZ8hvsB69-305" value="" style="rounded=0;whiteSpace=wrap;html=1;fillColor=#008a00;fontColor=#ffffff;strokeColor=#005700;rotation=-180;" vertex="1" parent="1">
          <mxGeometry x="1320" y="817" width="40" height="20" as="geometry" />
        </mxCell>
        <mxCell id="4V5qH3O3NvcLZ8hvsB69-306" value="" style="rounded=0;whiteSpace=wrap;html=1;fillColor=#008a00;fontColor=#ffffff;strokeColor=#005700;rotation=-180;" vertex="1" parent="1">
          <mxGeometry x="1280" y="817" width="40" height="20" as="geometry" />
        </mxCell>
        <mxCell id="4V5qH3O3NvcLZ8hvsB69-307" value="" style="rounded=0;whiteSpace=wrap;html=1;fillColor=#008a00;fontColor=#ffffff;strokeColor=#005700;rotation=-180;" vertex="1" parent="1">
          <mxGeometry x="1240" y="817" width="40" height="20" as="geometry" />
        </mxCell>
        <mxCell id="4V5qH3O3NvcLZ8hvsB69-308" value="" style="rounded=0;whiteSpace=wrap;html=1;fillColor=#008a00;fontColor=#ffffff;strokeColor=#005700;rotation=-180;" vertex="1" parent="1">
          <mxGeometry x="1200" y="817" width="40" height="20" as="geometry" />
        </mxCell>
        <mxCell id="4V5qH3O3NvcLZ8hvsB69-309" value="" style="rounded=0;whiteSpace=wrap;html=1;fillColor=#008a00;fontColor=#ffffff;strokeColor=#005700;rotation=-180;" vertex="1" parent="1">
          <mxGeometry x="1160" y="817" width="40" height="20" as="geometry" />
        </mxCell>
        <mxCell id="4V5qH3O3NvcLZ8hvsB69-310" value="" style="rounded=0;whiteSpace=wrap;html=1;fillColor=#008a00;fontColor=#ffffff;strokeColor=#005700;rotation=-180;" vertex="1" parent="1">
          <mxGeometry x="1120" y="817" width="40" height="20" as="geometry" />
        </mxCell>
        <mxCell id="4V5qH3O3NvcLZ8hvsB69-311" value="" style="rounded=0;whiteSpace=wrap;html=1;fillColor=#008a00;fontColor=#ffffff;strokeColor=#005700;rotation=-180;" vertex="1" parent="1">
          <mxGeometry x="1061" y="925" width="40" height="20" as="geometry" />
        </mxCell>
        <mxCell id="4V5qH3O3NvcLZ8hvsB69-312" value="" style="rounded=0;whiteSpace=wrap;html=1;fillColor=#008a00;fontColor=#ffffff;strokeColor=#005700;rotation=-180;" vertex="1" parent="1">
          <mxGeometry x="1021" y="925" width="40" height="20" as="geometry" />
        </mxCell>
        <mxCell id="4V5qH3O3NvcLZ8hvsB69-313" value="" style="rounded=0;whiteSpace=wrap;html=1;fillColor=#008a00;fontColor=#ffffff;strokeColor=#005700;rotation=-180;" vertex="1" parent="1">
          <mxGeometry x="981" y="925" width="40" height="20" as="geometry" />
        </mxCell>
        <mxCell id="4V5qH3O3NvcLZ8hvsB69-314" value="" style="rounded=0;whiteSpace=wrap;html=1;fillColor=#008a00;fontColor=#ffffff;strokeColor=#005700;rotation=-180;" vertex="1" parent="1">
          <mxGeometry x="941" y="925" width="40" height="20" as="geometry" />
        </mxCell>
        <mxCell id="4V5qH3O3NvcLZ8hvsB69-315" value="" style="rounded=0;whiteSpace=wrap;html=1;fillColor=#008a00;fontColor=#ffffff;strokeColor=#005700;rotation=-180;" vertex="1" parent="1">
          <mxGeometry x="901" y="925" width="40" height="20" as="geometry" />
        </mxCell>
        <mxCell id="4V5qH3O3NvcLZ8hvsB69-316" value="" style="rounded=0;whiteSpace=wrap;html=1;fillColor=#008a00;fontColor=#ffffff;strokeColor=#005700;rotation=-180;" vertex="1" parent="1">
          <mxGeometry x="1251" y="685" width="40" height="20" as="geometry" />
        </mxCell>
        <mxCell id="4V5qH3O3NvcLZ8hvsB69-317" value="" style="rounded=0;whiteSpace=wrap;html=1;fillColor=#008a00;fontColor=#ffffff;strokeColor=#005700;rotation=-180;" vertex="1" parent="1">
          <mxGeometry x="1301" y="925" width="40" height="20" as="geometry" />
        </mxCell>
        <mxCell id="4V5qH3O3NvcLZ8hvsB69-318" value="" style="rounded=0;whiteSpace=wrap;html=1;fillColor=#008a00;fontColor=#ffffff;strokeColor=#005700;rotation=-180;" vertex="1" parent="1">
          <mxGeometry x="1261" y="925" width="40" height="20" as="geometry" />
        </mxCell>
        <mxCell id="4V5qH3O3NvcLZ8hvsB69-319" value="" style="rounded=0;whiteSpace=wrap;html=1;fillColor=#008a00;fontColor=#ffffff;strokeColor=#005700;rotation=-180;" vertex="1" parent="1">
          <mxGeometry x="1221" y="925" width="40" height="20" as="geometry" />
        </mxCell>
        <mxCell id="4V5qH3O3NvcLZ8hvsB69-320" value="" style="rounded=0;whiteSpace=wrap;html=1;fillColor=#008a00;fontColor=#ffffff;strokeColor=#005700;rotation=-180;" vertex="1" parent="1">
          <mxGeometry x="1181" y="925" width="40" height="20" as="geometry" />
        </mxCell>
        <mxCell id="4V5qH3O3NvcLZ8hvsB69-321" value="" style="rounded=0;whiteSpace=wrap;html=1;fillColor=#008a00;fontColor=#ffffff;strokeColor=#005700;rotation=-180;" vertex="1" parent="1">
          <mxGeometry x="1141" y="925" width="40" height="20" as="geometry" />
        </mxCell>
        <mxCell id="4V5qH3O3NvcLZ8hvsB69-322" value="" style="rounded=0;whiteSpace=wrap;html=1;fillColor=#008a00;fontColor=#ffffff;strokeColor=#005700;rotation=-180;" vertex="1" parent="1">
          <mxGeometry x="1101" y="925" width="40" height="20" as="geometry" />
        </mxCell>
        <mxCell id="4V5qH3O3NvcLZ8hvsB69-323" value="" style="rounded=0;whiteSpace=wrap;html=1;fillColor=#008a00;fontColor=#ffffff;strokeColor=#005700;rotation=-180;" vertex="1" parent="1">
          <mxGeometry x="1080" y="1020" width="40" height="20" as="geometry" />
        </mxCell>
        <mxCell id="4V5qH3O3NvcLZ8hvsB69-324" value="" style="rounded=0;whiteSpace=wrap;html=1;fillColor=#008a00;fontColor=#ffffff;strokeColor=#005700;rotation=-180;" vertex="1" parent="1">
          <mxGeometry x="1040" y="1020" width="40" height="20" as="geometry" />
        </mxCell>
        <mxCell id="4V5qH3O3NvcLZ8hvsB69-325" value="" style="rounded=0;whiteSpace=wrap;html=1;fillColor=#008a00;fontColor=#ffffff;strokeColor=#005700;rotation=-180;" vertex="1" parent="1">
          <mxGeometry x="1000" y="1020" width="40" height="20" as="geometry" />
        </mxCell>
        <mxCell id="4V5qH3O3NvcLZ8hvsB69-326" value="" style="rounded=0;whiteSpace=wrap;html=1;fillColor=#008a00;fontColor=#ffffff;strokeColor=#005700;rotation=-180;" vertex="1" parent="1">
          <mxGeometry x="960" y="1020" width="40" height="20" as="geometry" />
        </mxCell>
        <mxCell id="4V5qH3O3NvcLZ8hvsB69-327" value="" style="rounded=0;whiteSpace=wrap;html=1;fillColor=#008a00;fontColor=#ffffff;strokeColor=#005700;rotation=-180;" vertex="1" parent="1">
          <mxGeometry x="920" y="1020" width="40" height="20" as="geometry" />
        </mxCell>
        <mxCell id="4V5qH3O3NvcLZ8hvsB69-328" value="" style="rounded=0;whiteSpace=wrap;html=1;fillColor=#008a00;fontColor=#ffffff;strokeColor=#005700;rotation=-180;" vertex="1" parent="1">
          <mxGeometry x="880" y="1020" width="40" height="20" as="geometry" />
        </mxCell>
        <mxCell id="4V5qH3O3NvcLZ8hvsB69-329" value="" style="rounded=0;whiteSpace=wrap;html=1;fillColor=#008a00;fontColor=#ffffff;strokeColor=#005700;rotation=-180;" vertex="1" parent="1">
          <mxGeometry x="1320" y="1020" width="40" height="20" as="geometry" />
        </mxCell>
        <mxCell id="4V5qH3O3NvcLZ8hvsB69-330" value="" style="rounded=0;whiteSpace=wrap;html=1;fillColor=#008a00;fontColor=#ffffff;strokeColor=#005700;rotation=-180;" vertex="1" parent="1">
          <mxGeometry x="1280" y="1020" width="40" height="20" as="geometry" />
        </mxCell>
        <mxCell id="4V5qH3O3NvcLZ8hvsB69-331" value="" style="rounded=0;whiteSpace=wrap;html=1;fillColor=#008a00;fontColor=#ffffff;strokeColor=#005700;rotation=-180;" vertex="1" parent="1">
          <mxGeometry x="1240" y="1020" width="40" height="20" as="geometry" />
        </mxCell>
        <mxCell id="4V5qH3O3NvcLZ8hvsB69-332" value="" style="rounded=0;whiteSpace=wrap;html=1;fillColor=#008a00;fontColor=#ffffff;strokeColor=#005700;rotation=-180;" vertex="1" parent="1">
          <mxGeometry x="1200" y="1020" width="40" height="20" as="geometry" />
        </mxCell>
        <mxCell id="4V5qH3O3NvcLZ8hvsB69-333" value="" style="rounded=0;whiteSpace=wrap;html=1;fillColor=#008a00;fontColor=#ffffff;strokeColor=#005700;rotation=-180;" vertex="1" parent="1">
          <mxGeometry x="1160" y="1020" width="40" height="20" as="geometry" />
        </mxCell>
        <mxCell id="4V5qH3O3NvcLZ8hvsB69-334" value="" style="rounded=0;whiteSpace=wrap;html=1;fillColor=#008a00;fontColor=#ffffff;strokeColor=#005700;rotation=-180;" vertex="1" parent="1">
          <mxGeometry x="1120" y="1020" width="40" height="20" as="geometry" />
        </mxCell>
        <mxCell id="4V5qH3O3NvcLZ8hvsB69-335" value="" style="rounded=0;whiteSpace=wrap;html=1;fillColor=#008a00;fontColor=#ffffff;strokeColor=#005700;rotation=-90;" vertex="1" parent="1">
          <mxGeometry x="870" y="949" width="40" height="20" as="geometry" />
        </mxCell>
        <mxCell id="4V5qH3O3NvcLZ8hvsB69-336" value="" style="rounded=0;whiteSpace=wrap;html=1;fillColor=#008a00;fontColor=#ffffff;strokeColor=#005700;rotation=-90;" vertex="1" parent="1">
          <mxGeometry x="870" y="990" width="40" height="20" as="geometry" />
        </mxCell>
        <mxCell id="4V5qH3O3NvcLZ8hvsB69-337" value="" style="rounded=0;whiteSpace=wrap;html=1;fillColor=#008a00;fontColor=#ffffff;strokeColor=#005700;rotation=-90;" vertex="1" parent="1">
          <mxGeometry x="1332" y="948" width="40" height="20" as="geometry" />
        </mxCell>
        <mxCell id="4V5qH3O3NvcLZ8hvsB69-338" value="" style="rounded=0;whiteSpace=wrap;html=1;fillColor=#008a00;fontColor=#ffffff;strokeColor=#005700;rotation=-90;" vertex="1" parent="1">
          <mxGeometry x="1332" y="989" width="40" height="20" as="geometry" />
        </mxCell>
        <mxCell id="4V5qH3O3NvcLZ8hvsB69-339" value="" style="rounded=0;whiteSpace=wrap;html=1;fillColor=#008a00;fontColor=#ffffff;strokeColor=#005700;rotation=-90;" vertex="1" parent="1">
          <mxGeometry x="1282" y="675" width="40" height="20" as="geometry" />
        </mxCell>
        <mxCell id="4V5qH3O3NvcLZ8hvsB69-340" value="" style="rounded=0;whiteSpace=wrap;html=1;fillColor=#008a00;fontColor=#ffffff;strokeColor=#005700;rotation=-90;" vertex="1" parent="1">
          <mxGeometry x="1282" y="633" width="40" height="20" as="geometry" />
        </mxCell>
        <mxCell id="4V5qH3O3NvcLZ8hvsB69-342" value="" style="rounded=0;whiteSpace=wrap;html=1;fillColor=#008a00;fontColor=#ffffff;strokeColor=#005700;rotation=-90;" vertex="1" parent="1">
          <mxGeometry x="1727.5" y="433" width="40" height="20" as="geometry" />
        </mxCell>
        <mxCell id="4V5qH3O3NvcLZ8hvsB69-343" value="" style="rounded=0;whiteSpace=wrap;html=1;fillColor=#008a00;fontColor=#ffffff;strokeColor=#005700;rotation=-55;" vertex="1" parent="1">
          <mxGeometry x="1677.5" y="503" width="40" height="20" as="geometry" />
        </mxCell>
        <mxCell id="4V5qH3O3NvcLZ8hvsB69-344" value="" style="rounded=0;whiteSpace=wrap;html=1;fillColor=#008a00;fontColor=#ffffff;strokeColor=#005700;rotation=-55;" vertex="1" parent="1">
          <mxGeometry x="1653.5" y="537" width="40" height="20" as="geometry" />
        </mxCell>
        <mxCell id="4V5qH3O3NvcLZ8hvsB69-345" value="" style="rounded=0;whiteSpace=wrap;html=1;fillColor=#008a00;fontColor=#ffffff;strokeColor=#005700;rotation=-55;" vertex="1" parent="1">
          <mxGeometry x="1629.5" y="572" width="40" height="20" as="geometry" />
        </mxCell>
        <mxCell id="4V5qH3O3NvcLZ8hvsB69-346" value="" style="rounded=0;whiteSpace=wrap;html=1;fillColor=#008a00;fontColor=#ffffff;strokeColor=#005700;rotation=-55;" vertex="1" parent="1">
          <mxGeometry x="1605.5" y="606" width="40" height="20" as="geometry" />
        </mxCell>
        <mxCell id="4V5qH3O3NvcLZ8hvsB69-347" value="" style="rounded=0;whiteSpace=wrap;html=1;fillColor=#008a00;fontColor=#ffffff;strokeColor=#005700;rotation=-55;" vertex="1" parent="1">
          <mxGeometry x="1581.5" y="640" width="40" height="20" as="geometry" />
        </mxCell>
        <mxCell id="4V5qH3O3NvcLZ8hvsB69-348" value="" style="rounded=0;whiteSpace=wrap;html=1;fillColor=#008a00;fontColor=#ffffff;strokeColor=#005700;rotation=-55;" vertex="1" parent="1">
          <mxGeometry x="1557.5" y="674" width="40" height="20" as="geometry" />
        </mxCell>
        <mxCell id="4V5qH3O3NvcLZ8hvsB69-349" value="" style="rounded=0;whiteSpace=wrap;html=1;fillColor=#008a00;fontColor=#ffffff;strokeColor=#005700;rotation=-55;" vertex="1" parent="1">
          <mxGeometry x="1533.5" y="708" width="40" height="20" as="geometry" />
        </mxCell>
        <mxCell id="4V5qH3O3NvcLZ8hvsB69-351" value="" style="rounded=0;whiteSpace=wrap;html=1;fillColor=#008a00;fontColor=#ffffff;strokeColor=#005700;rotation=-55;" vertex="1" parent="1">
          <mxGeometry x="1509.5" y="742" width="40" height="20" as="geometry" />
        </mxCell>
        <mxCell id="4V5qH3O3NvcLZ8hvsB69-352" value="" style="rounded=0;whiteSpace=wrap;html=1;fillColor=#008a00;fontColor=#ffffff;strokeColor=#005700;rotation=-55;" vertex="1" parent="1">
          <mxGeometry x="1485.5" y="776" width="40" height="20" as="geometry" />
        </mxCell>
        <mxCell id="4V5qH3O3NvcLZ8hvsB69-353" value="" style="rounded=0;whiteSpace=wrap;html=1;fillColor=#008a00;fontColor=#ffffff;strokeColor=#005700;rotation=-55;" vertex="1" parent="1">
          <mxGeometry x="1704.5" y="645" width="40" height="20" as="geometry" />
        </mxCell>
        <mxCell id="4V5qH3O3NvcLZ8hvsB69-354" value="" style="rounded=0;whiteSpace=wrap;html=1;fillColor=#008a00;fontColor=#ffffff;strokeColor=#005700;rotation=-55;" vertex="1" parent="1">
          <mxGeometry x="1680.5" y="679" width="40" height="20" as="geometry" />
        </mxCell>
        <mxCell id="4V5qH3O3NvcLZ8hvsB69-355" value="" style="rounded=0;whiteSpace=wrap;html=1;fillColor=#008a00;fontColor=#ffffff;strokeColor=#005700;rotation=-55;" vertex="1" parent="1">
          <mxGeometry x="1656.5" y="713" width="40" height="20" as="geometry" />
        </mxCell>
        <mxCell id="4V5qH3O3NvcLZ8hvsB69-356" value="" style="rounded=0;whiteSpace=wrap;html=1;fillColor=#008a00;fontColor=#ffffff;strokeColor=#005700;rotation=-55;" vertex="1" parent="1">
          <mxGeometry x="1632.5" y="748" width="40" height="20" as="geometry" />
        </mxCell>
        <mxCell id="4V5qH3O3NvcLZ8hvsB69-357" value="" style="rounded=0;whiteSpace=wrap;html=1;fillColor=#008a00;fontColor=#ffffff;strokeColor=#005700;rotation=-55;" vertex="1" parent="1">
          <mxGeometry x="1608.5" y="782" width="40" height="20" as="geometry" />
        </mxCell>
        <mxCell id="4V5qH3O3NvcLZ8hvsB69-358" value="" style="rounded=0;whiteSpace=wrap;html=1;fillColor=#008a00;fontColor=#ffffff;strokeColor=#005700;rotation=-55;" vertex="1" parent="1">
          <mxGeometry x="1584.5" y="816" width="40" height="20" as="geometry" />
        </mxCell>
        <mxCell id="4V5qH3O3NvcLZ8hvsB69-359" value="" style="rounded=0;whiteSpace=wrap;html=1;fillColor=#008a00;fontColor=#ffffff;strokeColor=#005700;rotation=-55;" vertex="1" parent="1">
          <mxGeometry x="1560.5" y="850" width="40" height="20" as="geometry" />
        </mxCell>
        <mxCell id="4V5qH3O3NvcLZ8hvsB69-360" value="" style="rounded=0;whiteSpace=wrap;html=1;fillColor=#008a00;fontColor=#ffffff;strokeColor=#005700;rotation=-55;" vertex="1" parent="1">
          <mxGeometry x="1536.5" y="884" width="40" height="20" as="geometry" />
        </mxCell>
        <mxCell id="4V5qH3O3NvcLZ8hvsB69-361" value="" style="rounded=0;whiteSpace=wrap;html=1;fillColor=#008a00;fontColor=#ffffff;strokeColor=#005700;rotation=-55;" vertex="1" parent="1">
          <mxGeometry x="1512.5" y="918" width="40" height="20" as="geometry" />
        </mxCell>
        <mxCell id="4V5qH3O3NvcLZ8hvsB69-362" value="" style="rounded=0;whiteSpace=wrap;html=1;fillColor=#008a00;fontColor=#ffffff;strokeColor=#005700;rotation=-55;" vertex="1" parent="1">
          <mxGeometry x="1488.5" y="953" width="40" height="20" as="geometry" />
        </mxCell>
        <mxCell id="4V5qH3O3NvcLZ8hvsB69-366" value="" style="rounded=0;whiteSpace=wrap;html=1;fillColor=#008a00;fontColor=#ffffff;strokeColor=#005700;rotation=-180;" vertex="1" parent="1">
          <mxGeometry x="1482.5" y="1010" width="40" height="20" as="geometry" />
        </mxCell>
        <mxCell id="4V5qH3O3NvcLZ8hvsB69-367" value="" style="rounded=0;whiteSpace=wrap;html=1;fillColor=#008a00;fontColor=#ffffff;strokeColor=#005700;rotation=-180;" vertex="1" parent="1">
          <mxGeometry x="1482.5" y="988" width="40" height="20" as="geometry" />
        </mxCell>
        <mxCell id="4V5qH3O3NvcLZ8hvsB69-368" value="" style="rounded=0;whiteSpace=wrap;html=1;fillColor=#008a00;fontColor=#ffffff;strokeColor=#005700;rotation=-90;" vertex="1" parent="1">
          <mxGeometry x="1726.5" y="673" width="40" height="20" as="geometry" />
        </mxCell>
        <mxCell id="4V5qH3O3NvcLZ8hvsB69-369" value="" style="rounded=0;whiteSpace=wrap;html=1;fillColor=#008a00;fontColor=#ffffff;strokeColor=#005700;" vertex="1" parent="1">
          <mxGeometry x="1523.5" y="1010" width="40" height="20" as="geometry" />
        </mxCell>
        <mxCell id="4V5qH3O3NvcLZ8hvsB69-370" value="" style="rounded=0;whiteSpace=wrap;html=1;fillColor=#008a00;fontColor=#ffffff;strokeColor=#005700;" vertex="1" parent="1">
          <mxGeometry x="1563.5" y="1010" width="40" height="20" as="geometry" />
        </mxCell>
        <mxCell id="4V5qH3O3NvcLZ8hvsB69-371" value="" style="rounded=0;whiteSpace=wrap;html=1;fillColor=#008a00;fontColor=#ffffff;strokeColor=#005700;" vertex="1" parent="1">
          <mxGeometry x="1603.5" y="1010" width="40" height="20" as="geometry" />
        </mxCell>
        <mxCell id="4V5qH3O3NvcLZ8hvsB69-372" value="" style="rounded=0;whiteSpace=wrap;html=1;fillColor=#008a00;strokeColor=#005700;fontColor=#ffffff;" vertex="1" parent="1">
          <mxGeometry x="1643.5" y="1010" width="40" height="20" as="geometry" />
        </mxCell>
        <mxCell id="4V5qH3O3NvcLZ8hvsB69-373" value="" style="rounded=0;whiteSpace=wrap;html=1;fillColor=#008a00;fontColor=#ffffff;strokeColor=#005700;" vertex="1" parent="1">
          <mxGeometry x="1683.5" y="1010" width="40" height="20" as="geometry" />
        </mxCell>
        <mxCell id="4V5qH3O3NvcLZ8hvsB69-374" value="" style="rounded=0;whiteSpace=wrap;html=1;fillColor=#008a00;fontColor=#ffffff;strokeColor=#005700;" vertex="1" parent="1">
          <mxGeometry x="1723.5" y="1010" width="40" height="20" as="geometry" />
        </mxCell>
        <mxCell id="4V5qH3O3NvcLZ8hvsB69-376" value="" style="rounded=0;whiteSpace=wrap;html=1;fillColor=#008a00;fontColor=#ffffff;strokeColor=#005700;rotation=-90;" vertex="1" parent="1">
          <mxGeometry x="1726.5" y="714" width="40" height="20" as="geometry" />
        </mxCell>
        <mxCell id="4V5qH3O3NvcLZ8hvsB69-377" value="" style="rounded=0;whiteSpace=wrap;html=1;fillColor=#008a00;fontColor=#ffffff;strokeColor=#005700;rotation=-90;" vertex="1" parent="1">
          <mxGeometry x="1726.5" y="754" width="40" height="20" as="geometry" />
        </mxCell>
        <mxCell id="4V5qH3O3NvcLZ8hvsB69-378" value="" style="rounded=0;whiteSpace=wrap;html=1;fillColor=#008a00;fontColor=#ffffff;strokeColor=#005700;rotation=-90;" vertex="1" parent="1">
          <mxGeometry x="1726.5" y="794" width="40" height="20" as="geometry" />
        </mxCell>
        <mxCell id="4V5qH3O3NvcLZ8hvsB69-379" value="" style="rounded=0;whiteSpace=wrap;html=1;fillColor=#008a00;fontColor=#ffffff;strokeColor=#005700;rotation=-90;" vertex="1" parent="1">
          <mxGeometry x="1726.5" y="834" width="40" height="20" as="geometry" />
        </mxCell>
        <mxCell id="4V5qH3O3NvcLZ8hvsB69-380" value="" style="rounded=0;whiteSpace=wrap;html=1;fillColor=#008a00;fontColor=#ffffff;strokeColor=#005700;rotation=-90;" vertex="1" parent="1">
          <mxGeometry x="1726.5" y="874" width="40" height="20" as="geometry" />
        </mxCell>
        <mxCell id="4V5qH3O3NvcLZ8hvsB69-381" value="" style="rounded=0;whiteSpace=wrap;html=1;fillColor=#008a00;fontColor=#ffffff;strokeColor=#005700;rotation=-90;" vertex="1" parent="1">
          <mxGeometry x="1726.5" y="914" width="40" height="20" as="geometry" />
        </mxCell>
        <mxCell id="4V5qH3O3NvcLZ8hvsB69-382" value="" style="rounded=0;whiteSpace=wrap;html=1;fillColor=#008a00;fontColor=#ffffff;strokeColor=#005700;rotation=-90;" vertex="1" parent="1">
          <mxGeometry x="1726.5" y="956" width="40" height="20" as="geometry" />
        </mxCell>
        <mxCell id="4V5qH3O3NvcLZ8hvsB69-383" value="" style="rounded=0;whiteSpace=wrap;html=1;fillColor=#008a00;fontColor=#ffffff;strokeColor=#005700;" vertex="1" parent="1">
          <mxGeometry x="1724.5" y="988" width="40" height="20" as="geometry" />
        </mxCell>
        <mxCell id="4V5qH3O3NvcLZ8hvsB69-384" value="" style="rounded=0;whiteSpace=wrap;html=1;fillColor=#008a00;fontColor=#ffffff;strokeColor=#005700;" vertex="1" parent="1">
          <mxGeometry x="1478.5" y="402" width="40" height="20" as="geometry" />
        </mxCell>
        <mxCell id="4V5qH3O3NvcLZ8hvsB69-385" value="" style="rounded=0;whiteSpace=wrap;html=1;fillColor=#008a00;fontColor=#ffffff;strokeColor=#005700;" vertex="1" parent="1">
          <mxGeometry x="1518.5" y="402" width="40" height="20" as="geometry" />
        </mxCell>
        <mxCell id="4V5qH3O3NvcLZ8hvsB69-386" value="" style="rounded=0;whiteSpace=wrap;html=1;fillColor=#008a00;fontColor=#ffffff;strokeColor=#005700;" vertex="1" parent="1">
          <mxGeometry x="1558.5" y="402" width="40" height="20" as="geometry" />
        </mxCell>
        <mxCell id="4V5qH3O3NvcLZ8hvsB69-387" value="" style="rounded=0;whiteSpace=wrap;html=1;fillColor=#008a00;strokeColor=#005700;fontColor=#ffffff;" vertex="1" parent="1">
          <mxGeometry x="1598.5" y="402" width="40" height="20" as="geometry" />
        </mxCell>
        <mxCell id="4V5qH3O3NvcLZ8hvsB69-388" value="" style="rounded=0;whiteSpace=wrap;html=1;fillColor=#008a00;fontColor=#ffffff;strokeColor=#005700;" vertex="1" parent="1">
          <mxGeometry x="1638.5" y="402" width="40" height="20" as="geometry" />
        </mxCell>
        <mxCell id="4V5qH3O3NvcLZ8hvsB69-389" value="" style="rounded=0;whiteSpace=wrap;html=1;fillColor=#008a00;fontColor=#ffffff;strokeColor=#005700;" vertex="1" parent="1">
          <mxGeometry x="1678.5" y="402" width="40" height="20" as="geometry" />
        </mxCell>
        <mxCell id="4V5qH3O3NvcLZ8hvsB69-390" value="" style="rounded=0;whiteSpace=wrap;html=1;fillColor=#008a00;fontColor=#ffffff;strokeColor=#005700;" vertex="1" parent="1">
          <mxGeometry x="1718.5" y="402" width="40" height="20" as="geometry" />
        </mxCell>
        <mxCell id="4V5qH3O3NvcLZ8hvsB69-391" value="" style="rounded=0;whiteSpace=wrap;html=1;fillColor=#008a00;fontColor=#ffffff;strokeColor=#005700;rotation=-90;" vertex="1" parent="1">
          <mxGeometry x="1830" y="689" width="40" height="20" as="geometry" />
        </mxCell>
        <mxCell id="4V5qH3O3NvcLZ8hvsB69-392" value="" style="rounded=0;whiteSpace=wrap;html=1;fillColor=#008a00;fontColor=#ffffff;strokeColor=#005700;rotation=-90;" vertex="1" parent="1">
          <mxGeometry x="1830" y="729" width="40" height="20" as="geometry" />
        </mxCell>
        <mxCell id="4V5qH3O3NvcLZ8hvsB69-393" value="" style="rounded=0;whiteSpace=wrap;html=1;fillColor=#008a00;fontColor=#ffffff;strokeColor=#005700;rotation=-90;" vertex="1" parent="1">
          <mxGeometry x="1830" y="769" width="40" height="20" as="geometry" />
        </mxCell>
        <mxCell id="4V5qH3O3NvcLZ8hvsB69-394" value="" style="rounded=0;whiteSpace=wrap;html=1;fillColor=#008a00;fontColor=#ffffff;strokeColor=#005700;rotation=-90;" vertex="1" parent="1">
          <mxGeometry x="1830" y="809" width="40" height="20" as="geometry" />
        </mxCell>
        <mxCell id="4V5qH3O3NvcLZ8hvsB69-395" value="" style="rounded=0;whiteSpace=wrap;html=1;fillColor=#008a00;fontColor=#ffffff;strokeColor=#005700;rotation=-90;" vertex="1" parent="1">
          <mxGeometry x="1830" y="849" width="40" height="20" as="geometry" />
        </mxCell>
        <mxCell id="4V5qH3O3NvcLZ8hvsB69-396" value="" style="rounded=0;whiteSpace=wrap;html=1;fillColor=#008a00;fontColor=#ffffff;strokeColor=#005700;rotation=-90;" vertex="1" parent="1">
          <mxGeometry x="1830" y="490" width="40" height="20" as="geometry" />
        </mxCell>
        <mxCell id="4V5qH3O3NvcLZ8hvsB69-397" value="" style="rounded=0;whiteSpace=wrap;html=1;fillColor=#008a00;fontColor=#ffffff;strokeColor=#005700;rotation=-90;" vertex="1" parent="1">
          <mxGeometry x="1830" y="530" width="40" height="20" as="geometry" />
        </mxCell>
        <mxCell id="4V5qH3O3NvcLZ8hvsB69-398" value="" style="rounded=0;whiteSpace=wrap;html=1;fillColor=#008a00;fontColor=#ffffff;strokeColor=#005700;rotation=-90;" vertex="1" parent="1">
          <mxGeometry x="1830" y="570" width="40" height="20" as="geometry" />
        </mxCell>
        <mxCell id="4V5qH3O3NvcLZ8hvsB69-399" value="" style="rounded=0;whiteSpace=wrap;html=1;fillColor=#008a00;fontColor=#ffffff;strokeColor=#005700;rotation=-90;" vertex="1" parent="1">
          <mxGeometry x="1830" y="610" width="40" height="20" as="geometry" />
        </mxCell>
        <mxCell id="4V5qH3O3NvcLZ8hvsB69-400" value="" style="rounded=0;whiteSpace=wrap;html=1;fillColor=#008a00;fontColor=#ffffff;strokeColor=#005700;rotation=-90;" vertex="1" parent="1">
          <mxGeometry x="1830" y="650" width="40" height="20" as="geometry" />
        </mxCell>
        <mxCell id="4V5qH3O3NvcLZ8hvsB69-401" value="" style="rounded=0;whiteSpace=wrap;html=1;fillColor=#008a00;fontColor=#ffffff;strokeColor=#005700;rotation=-90;" vertex="1" parent="1">
          <mxGeometry x="1830" y="370" width="40" height="20" as="geometry" />
        </mxCell>
        <mxCell id="4V5qH3O3NvcLZ8hvsB69-402" value="" style="rounded=0;whiteSpace=wrap;html=1;fillColor=#008a00;fontColor=#ffffff;strokeColor=#005700;rotation=-90;" vertex="1" parent="1">
          <mxGeometry x="1830" y="410" width="40" height="20" as="geometry" />
        </mxCell>
        <mxCell id="4V5qH3O3NvcLZ8hvsB69-403" value="" style="rounded=0;whiteSpace=wrap;html=1;fillColor=#008a00;fontColor=#ffffff;strokeColor=#005700;rotation=-90;" vertex="1" parent="1">
          <mxGeometry x="1830" y="450" width="40" height="20" as="geometry" />
        </mxCell>
        <mxCell id="4V5qH3O3NvcLZ8hvsB69-404" value="" style="rounded=0;whiteSpace=wrap;html=1;fillColor=#008a00;fontColor=#ffffff;strokeColor=#005700;rotation=-180;" vertex="1" parent="1">
          <mxGeometry x="1480.5" y="425" width="40" height="20" as="geometry" />
        </mxCell>
        <mxCell id="4V5qH3O3NvcLZ8hvsB69-408" value="" style="rounded=0;whiteSpace=wrap;html=1;fillColor=#008a00;fontColor=#ffffff;strokeColor=#005700;rotation=-90;" vertex="1" parent="1">
          <mxGeometry x="814" y="492" width="40" height="20" as="geometry" />
        </mxCell>
        <mxCell id="4V5qH3O3NvcLZ8hvsB69-409" value="" style="rounded=0;whiteSpace=wrap;html=1;fillColor=#008a00;fontColor=#ffffff;strokeColor=#005700;rotation=-90;" vertex="1" parent="1">
          <mxGeometry x="814" y="453" width="40" height="20" as="geometry" />
        </mxCell>
        <mxCell id="4V5qH3O3NvcLZ8hvsB69-410" value="" style="rounded=0;whiteSpace=wrap;html=1;fillColor=#008a00;fontColor=#ffffff;strokeColor=#005700;rotation=-90;" vertex="1" parent="1">
          <mxGeometry x="814" y="412" width="40" height="20" as="geometry" />
        </mxCell>
        <mxCell id="4V5qH3O3NvcLZ8hvsB69-411" value="" style="rounded=0;whiteSpace=wrap;html=1;fillColor=#008a00;strokeColor=#005700;fontColor=#ffffff;" vertex="1" parent="1">
          <mxGeometry x="342" y="402" width="40" height="20" as="geometry" />
        </mxCell>
        <mxCell id="4V5qH3O3NvcLZ8hvsB69-412" value="" style="rounded=0;whiteSpace=wrap;html=1;fillColor=#008a00;fontColor=#ffffff;strokeColor=#005700;" vertex="1" parent="1">
          <mxGeometry x="382" y="402" width="40" height="20" as="geometry" />
        </mxCell>
        <mxCell id="4V5qH3O3NvcLZ8hvsB69-413" value="" style="rounded=0;whiteSpace=wrap;html=1;fillColor=#008a00;fontColor=#ffffff;strokeColor=#005700;" vertex="1" parent="1">
          <mxGeometry x="422" y="402" width="40" height="20" as="geometry" />
        </mxCell>
        <mxCell id="4V5qH3O3NvcLZ8hvsB69-414" value="" style="rounded=0;whiteSpace=wrap;html=1;fillColor=#008a00;fontColor=#ffffff;strokeColor=#005700;" vertex="1" parent="1">
          <mxGeometry x="462" y="402" width="40" height="20" as="geometry" />
        </mxCell>
        <mxCell id="4V5qH3O3NvcLZ8hvsB69-415" value="" style="rounded=0;whiteSpace=wrap;html=1;fillColor=#008a00;fontColor=#ffffff;strokeColor=#005700;" vertex="1" parent="1">
          <mxGeometry x="502" y="402" width="40" height="20" as="geometry" />
        </mxCell>
        <mxCell id="4V5qH3O3NvcLZ8hvsB69-416" value="" style="rounded=0;whiteSpace=wrap;html=1;fillColor=#008a00;fontColor=#ffffff;strokeColor=#005700;" vertex="1" parent="1">
          <mxGeometry x="542" y="402" width="40" height="20" as="geometry" />
        </mxCell>
        <mxCell id="4V5qH3O3NvcLZ8hvsB69-417" value="" style="rounded=0;whiteSpace=wrap;html=1;fillColor=#008a00;strokeColor=#005700;fontColor=#ffffff;" vertex="1" parent="1">
          <mxGeometry x="582" y="402" width="40" height="20" as="geometry" />
        </mxCell>
        <mxCell id="4V5qH3O3NvcLZ8hvsB69-418" value="" style="rounded=0;whiteSpace=wrap;html=1;fillColor=#008a00;fontColor=#ffffff;strokeColor=#005700;" vertex="1" parent="1">
          <mxGeometry x="622" y="402" width="40" height="20" as="geometry" />
        </mxCell>
        <mxCell id="4V5qH3O3NvcLZ8hvsB69-419" value="" style="rounded=0;whiteSpace=wrap;html=1;fillColor=#008a00;fontColor=#ffffff;strokeColor=#005700;" vertex="1" parent="1">
          <mxGeometry x="662" y="402" width="40" height="20" as="geometry" />
        </mxCell>
        <mxCell id="4V5qH3O3NvcLZ8hvsB69-420" value="" style="rounded=0;whiteSpace=wrap;html=1;fillColor=#008a00;fontColor=#ffffff;strokeColor=#005700;" vertex="1" parent="1">
          <mxGeometry x="702" y="402" width="40" height="20" as="geometry" />
        </mxCell>
        <mxCell id="4V5qH3O3NvcLZ8hvsB69-421" value="" style="rounded=0;whiteSpace=wrap;html=1;fillColor=#008a00;strokeColor=#005700;fontColor=#ffffff;" vertex="1" parent="1">
          <mxGeometry x="742" y="402" width="40" height="20" as="geometry" />
        </mxCell>
        <mxCell id="4V5qH3O3NvcLZ8hvsB69-422" value="" style="rounded=0;whiteSpace=wrap;html=1;fillColor=#008a00;strokeColor=#005700;fontColor=#ffffff;" vertex="1" parent="1">
          <mxGeometry x="783" y="402" width="40" height="20" as="geometry" />
        </mxCell>
        <mxCell id="4V5qH3O3NvcLZ8hvsB69-423" value="" style="rounded=0;whiteSpace=wrap;html=1;fillColor=#008a00;fontColor=#ffffff;strokeColor=#005700;rotation=-90;" vertex="1" parent="1">
          <mxGeometry x="942.5" y="491" width="40" height="20" as="geometry" />
        </mxCell>
        <mxCell id="4V5qH3O3NvcLZ8hvsB69-424" value="" style="rounded=0;whiteSpace=wrap;html=1;fillColor=#008a00;fontColor=#ffffff;strokeColor=#005700;rotation=-90;" vertex="1" parent="1">
          <mxGeometry x="942.5" y="452" width="40" height="20" as="geometry" />
        </mxCell>
        <mxCell id="4V5qH3O3NvcLZ8hvsB69-425" value="" style="rounded=0;whiteSpace=wrap;html=1;fillColor=#008a00;fontColor=#ffffff;strokeColor=#005700;rotation=-90;" vertex="1" parent="1">
          <mxGeometry x="942.5" y="411" width="40" height="20" as="geometry" />
        </mxCell>
        <mxCell id="4V5qH3O3NvcLZ8hvsB69-426" value="" style="rounded=0;whiteSpace=wrap;html=1;fillColor=#008a00;fontColor=#ffffff;strokeColor=#005700;rotation=-180;" vertex="1" parent="1">
          <mxGeometry x="1174.5" y="501" width="40" height="20" as="geometry" />
        </mxCell>
        <mxCell id="4V5qH3O3NvcLZ8hvsB69-427" value="" style="rounded=0;whiteSpace=wrap;html=1;fillColor=#008a00;fontColor=#ffffff;strokeColor=#005700;rotation=-180;" vertex="1" parent="1">
          <mxGeometry x="1134.5" y="501" width="40" height="20" as="geometry" />
        </mxCell>
        <mxCell id="4V5qH3O3NvcLZ8hvsB69-428" value="" style="rounded=0;whiteSpace=wrap;html=1;fillColor=#008a00;fontColor=#ffffff;strokeColor=#005700;rotation=-180;" vertex="1" parent="1">
          <mxGeometry x="1094.5" y="501" width="40" height="20" as="geometry" />
        </mxCell>
        <mxCell id="4V5qH3O3NvcLZ8hvsB69-429" value="" style="rounded=0;whiteSpace=wrap;html=1;fillColor=#008a00;fontColor=#ffffff;strokeColor=#005700;rotation=-180;" vertex="1" parent="1">
          <mxGeometry x="1054.5" y="501" width="40" height="20" as="geometry" />
        </mxCell>
        <mxCell id="4V5qH3O3NvcLZ8hvsB69-430" value="" style="rounded=0;whiteSpace=wrap;html=1;fillColor=#008a00;fontColor=#ffffff;strokeColor=#005700;rotation=-180;" vertex="1" parent="1">
          <mxGeometry x="1014.5" y="501" width="40" height="20" as="geometry" />
        </mxCell>
        <mxCell id="4V5qH3O3NvcLZ8hvsB69-431" value="" style="rounded=0;whiteSpace=wrap;html=1;fillColor=#008a00;fontColor=#ffffff;strokeColor=#005700;rotation=-180;" vertex="1" parent="1">
          <mxGeometry x="974.5" y="501" width="40" height="20" as="geometry" />
        </mxCell>
        <mxCell id="4V5qH3O3NvcLZ8hvsB69-436" value="" style="rounded=0;whiteSpace=wrap;html=1;fillColor=#008a00;fontColor=#ffffff;strokeColor=#005700;rotation=-180;" vertex="1" parent="1">
          <mxGeometry x="1254.5" y="501" width="40" height="20" as="geometry" />
        </mxCell>
        <mxCell id="4V5qH3O3NvcLZ8hvsB69-437" value="" style="rounded=0;whiteSpace=wrap;html=1;fillColor=#008a00;fontColor=#ffffff;strokeColor=#005700;rotation=-180;" vertex="1" parent="1">
          <mxGeometry x="1214.5" y="501" width="40" height="20" as="geometry" />
        </mxCell>
        <mxCell id="4V5qH3O3NvcLZ8hvsB69-438" value="" style="rounded=0;whiteSpace=wrap;html=1;fillColor=#008a00;fontColor=#ffffff;strokeColor=#005700;rotation=-90;" vertex="1" parent="1">
          <mxGeometry x="1285" y="491" width="40" height="20" as="geometry" />
        </mxCell>
        <mxCell id="4V5qH3O3NvcLZ8hvsB69-439" value="" style="rounded=0;whiteSpace=wrap;html=1;fillColor=#008a00;fontColor=#ffffff;strokeColor=#005700;rotation=-90;" vertex="1" parent="1">
          <mxGeometry x="1285" y="452" width="40" height="20" as="geometry" />
        </mxCell>
        <mxCell id="4V5qH3O3NvcLZ8hvsB69-440" value="" style="rounded=0;whiteSpace=wrap;html=1;fillColor=#008a00;fontColor=#ffffff;strokeColor=#005700;rotation=-90;" vertex="1" parent="1">
          <mxGeometry x="1285" y="411" width="40" height="20" as="geometry" />
        </mxCell>
        <mxCell id="4V5qH3O3NvcLZ8hvsB69-441" value="" style="rounded=0;whiteSpace=wrap;html=1;fillColor=#008a00;strokeColor=#005700;fontColor=#ffffff;" vertex="1" parent="1">
          <mxGeometry x="973.5" y="401" width="40" height="20" as="geometry" />
        </mxCell>
        <mxCell id="4V5qH3O3NvcLZ8hvsB69-442" value="" style="rounded=0;whiteSpace=wrap;html=1;fillColor=#008a00;fontColor=#ffffff;strokeColor=#005700;" vertex="1" parent="1">
          <mxGeometry x="1013.5" y="401" width="40" height="20" as="geometry" />
        </mxCell>
        <mxCell id="4V5qH3O3NvcLZ8hvsB69-443" value="" style="rounded=0;whiteSpace=wrap;html=1;fillColor=#008a00;fontColor=#ffffff;strokeColor=#005700;" vertex="1" parent="1">
          <mxGeometry x="1053.5" y="401" width="40" height="20" as="geometry" />
        </mxCell>
        <mxCell id="4V5qH3O3NvcLZ8hvsB69-444" value="" style="rounded=0;whiteSpace=wrap;html=1;fillColor=#008a00;fontColor=#ffffff;strokeColor=#005700;" vertex="1" parent="1">
          <mxGeometry x="1093.5" y="401" width="40" height="20" as="geometry" />
        </mxCell>
        <mxCell id="4V5qH3O3NvcLZ8hvsB69-445" value="" style="rounded=0;whiteSpace=wrap;html=1;fillColor=#008a00;fontColor=#ffffff;strokeColor=#005700;" vertex="1" parent="1">
          <mxGeometry x="1133.5" y="401" width="40" height="20" as="geometry" />
        </mxCell>
        <mxCell id="4V5qH3O3NvcLZ8hvsB69-446" value="" style="rounded=0;whiteSpace=wrap;html=1;fillColor=#008a00;fontColor=#ffffff;strokeColor=#005700;" vertex="1" parent="1">
          <mxGeometry x="1173.5" y="401" width="40" height="20" as="geometry" />
        </mxCell>
        <mxCell id="4V5qH3O3NvcLZ8hvsB69-447" value="" style="rounded=0;whiteSpace=wrap;html=1;fillColor=#008a00;strokeColor=#005700;fontColor=#ffffff;" vertex="1" parent="1">
          <mxGeometry x="1213.5" y="401" width="40" height="20" as="geometry" />
        </mxCell>
        <mxCell id="4V5qH3O3NvcLZ8hvsB69-448" value="" style="rounded=0;whiteSpace=wrap;html=1;fillColor=#008a00;fontColor=#ffffff;strokeColor=#005700;" vertex="1" parent="1">
          <mxGeometry x="1253.5" y="401" width="40" height="20" as="geometry" />
        </mxCell>
        <mxCell id="4V5qH3O3NvcLZ8hvsB69-453" value="" style="rounded=0;whiteSpace=wrap;html=1;fillColor=#008a00;fontColor=#ffffff;strokeColor=#005700;rotation=-90;" vertex="1" parent="1">
          <mxGeometry x="813" y="611" width="40" height="20" as="geometry" />
        </mxCell>
        <mxCell id="4V5qH3O3NvcLZ8hvsB69-454" value="" style="rounded=0;whiteSpace=wrap;html=1;fillColor=#008a00;fontColor=#ffffff;strokeColor=#005700;rotation=-90;" vertex="1" parent="1">
          <mxGeometry x="813" y="652" width="40" height="20" as="geometry" />
        </mxCell>
        <mxCell id="4V5qH3O3NvcLZ8hvsB69-455" value="" style="rounded=0;whiteSpace=wrap;html=1;fillColor=#008a00;fontColor=#ffffff;strokeColor=#005700;rotation=-180;" vertex="1" parent="1">
          <mxGeometry x="812" y="685" width="40" height="20" as="geometry" />
        </mxCell>
        <mxCell id="4V5qH3O3NvcLZ8hvsB69-456" value="" style="rounded=0;whiteSpace=wrap;html=1;fillColor=#008a00;fontColor=#ffffff;strokeColor=#005700;rotation=-90;" vertex="1" parent="1">
          <mxGeometry x="952" y="611" width="40" height="20" as="geometry" />
        </mxCell>
        <mxCell id="4V5qH3O3NvcLZ8hvsB69-457" value="" style="rounded=0;whiteSpace=wrap;html=1;fillColor=#008a00;fontColor=#ffffff;strokeColor=#005700;rotation=-90;" vertex="1" parent="1">
          <mxGeometry x="952" y="653" width="40" height="20" as="geometry" />
        </mxCell>
      </root>
    </mxGraphModel>
  </diagram>
</mxfile>
